<svg width="145" height="156" viewBox="0 0 145 156" fill="none" xmlns="http://www.w3.org/2000/svg">
<path d="M46.5471 84.8119H82.2284V55.845C82.2284 54.9435 83.0057 54.171 83.9142 54.171H90.4026V47.2194L74.5727 41.6839C72.497 45.4164 68.6042 47.734 64.3228 47.734C60.0413 47.734 56.1485 45.4164 54.2028 41.6839L38.3742 47.2194V54.171H44.8614C45.7686 54.171 46.5471 54.9435 46.5471 55.845V84.8119ZM83.7842 88.0298H44.8614C43.9528 88.0298 43.1742 87.2585 43.1742 86.3557V57.3901H36.6871C35.7786 57.3901 35 56.6175 35 55.716V46.06C35 45.4164 35.3899 44.7728 36.0385 44.5149L54.4627 38.0779C55.37 37.8213 56.2785 38.2069 56.5385 39.1084C57.7057 42.3275 60.6899 44.5149 64.1928 44.5149C67.697 44.5149 70.68 42.3275 71.8484 39.1084C72.1071 38.2069 73.0156 37.8213 73.9242 38.0779L92.3484 44.5149C92.997 44.7728 93.3856 45.2874 93.3856 46.06V55.716C93.3856 56.6175 92.6071 57.3901 91.6985 57.3901H85.2114V86.3557C85.4713 87.2585 84.6928 88.0298 83.7842 88.0298Z" fill="white"/>
<path d="M83.7848 57.3896C83.2662 57.3896 82.7476 57.1317 82.4876 56.7461C80.8018 54.5575 78.5961 48.893 82.4876 43.6143C83.0062 42.8417 84.0448 42.7127 84.6933 43.2273C85.4719 43.7419 85.6019 44.7724 85.0832 45.416C81.7091 50.0512 84.9533 54.5575 85.0832 54.8141C85.6019 55.5866 85.4719 56.4882 84.6933 57.0028C84.4334 57.2607 84.1747 57.3896 83.7848 57.3896Z" fill="white"/>
<path d="M44.8616 57.3896C44.4717 57.3896 44.2131 57.2607 43.9531 57.1317C43.1745 56.6171 43.0446 55.5866 43.5645 54.9431C43.6944 54.6851 46.9374 50.3091 43.5645 45.5449C43.0446 44.7724 43.1745 43.8709 43.9531 43.3563C44.7317 42.8417 45.6402 42.9694 46.1588 43.7419C50.0516 49.0207 47.8459 54.6852 46.1588 56.8751C45.9001 57.1317 45.3803 57.3896 44.8616 57.3896Z" fill="white"/>
<path d="M70.81 81.5923H44.8614C43.9529 81.5923 43.1743 80.821 43.1743 79.9183C43.1743 79.0168 43.9529 78.2455 44.8614 78.2455H70.81C71.7185 78.2455 72.4971 79.0168 72.4971 79.9183C72.4971 80.821 71.7185 81.5923 70.81 81.5923Z" fill="white"/>
<path d="M83.8342 97.1546C64.0948 108.463 38.7329 102.123 27.4665 82.7602C16.2 63.3971 23.1826 38.5277 43.0872 27.1247C62.992 15.7216 88.188 22.1564 99.4545 41.5195C110.721 60.8826 103.573 85.8464 83.8342 97.1546ZM94.9242 101.774L82.3192 108.995L79.5965 104.316C84.1194 102.585 88.4313 100.115 92.2015 97.0944L94.9242 101.774ZM40.74 23.0908C18.5136 35.8239 10.8328 63.675 23.3198 85.1357C33.7413 103.047 55.2665 111.154 74.8144 105.979L79.2271 113.563C79.8844 114.693 81.443 115.091 82.6037 114.426L84.7603 113.19L97.2473 132.538C97.9045 133.667 99.4625 134.066 100.624 133.4C101.785 132.735 109.74 129.684 109.083 128.554L97.5325 114.426L93.2196 108.344L105.707 127.692C106.364 128.821 107.922 129.219 109.083 128.554C110.245 127.888 110.677 126.35 110.02 125.221L97.5325 105.873L99.6888 104.638C100.85 103.973 101.282 102.435 100.624 101.305L96.2118 93.7212C110.667 79.4159 114.282 57.1212 103.767 39.0489C91.1143 17.683 62.9667 10.3575 40.74 23.0908Z" fill="white"/>
</svg>
