<svg width="60" height="47" viewBox="0 0 60 47" fill="none" xmlns="http://www.w3.org/2000/svg">
<path d="M31.3616 24.1476C32.0126 25.8522 31.6639 27.3464 31.3985 28.4305L31.2307 29.5531C31.5699 29.9049 33.5003 29.2785 34.7785 28.8786C36.1269 28.445 37.5122 28.0016 37.7169 27.3271L37.6002 26.6379L37.5253 24.4794L39.2974 22.8796L40.3518 22.1814L40.929 19.902L40.6267 19.1311L39.2509 19.2421L38.2465 20.0463L36.3911 21.2082C35.1831 21.3624 33.8764 20.7025 33.2813 19.6281L33.0159 17.7631L30.669 18.4379L28.9064 20.721L29.6038 21.7238C30.1477 22.2147 30.8915 22.9042 31.3616 24.1476ZM31.6306 31.8418L29.7383 31.1046L29.3432 27.9053L29.3896 24.937L28.1912 23.3618C27.5818 22.7982 26.8189 22.0988 26.7868 20.7691C26.7309 18.5674 28.7207 17.0835 29.5764 16.5531C31.0915 15.6194 33.7038 14.9447 34.7927 16.3903L35.1176 18.0765L35.1272 18.5341L36.1269 19.025L36.6708 18.5772L38.4833 17.1945C39.1105 16.9441 40.6922 16.447 41.8823 17.3635L43.0391 19.6281C43.2021 21.0158 42.7927 22.5663 41.993 23.5789L40.1054 24.9037L39.4878 25.2984L39.5949 25.8917L39.7437 27.9728C39.2081 29.7555 37.2742 30.3819 35.4009 30.9745C33.9549 31.4323 32.6815 31.8418 31.6306 31.8418Z" fill="#444444"/>
<path d="M14.2048 44.4984H45.7952V16.9369L46.266 16.0525L47.2554 15.9577L56.7763 19.8207L57.8214 10.7521L47.5164 3.83356L38.1789 2.27453L37.4951 3.55139C35.8955 6.01258 33.1246 7.48016 30.096 7.48016C27.0674 7.48016 24.3054 6.01258 22.7102 3.55139L22.0264 2.27453L12.4836 3.83356L2.19199 10.7521L3.22491 19.8207L12.7458 15.9577L13.7352 16.0525L14.2048 16.9369V44.4984ZM46.8628 46.625H13.1372L12.0787 45.5578V18.5148L2.73184 22.3175L1.78702 22.2384L1.27727 21.4544L0 10.3462L0.470738 9.34473L11.4685 1.96116L11.8299 1.80839L22.4626 0.000686646L23.7042 0.727791L24.4884 2.3961C25.6998 4.25621 27.7914 5.36692 30.096 5.36692C32.4095 5.36692 34.51 4.25621 35.7092 2.3961L36.4934 0.727791L37.735 0.000686646L48.1835 1.80839L48.5405 1.96116L59.5304 9.34473L60 10.3462L58.7284 21.4544L58.2141 22.2384L57.2637 22.3175L47.9169 18.5148V45.5578L46.8628 46.625Z" fill="#444444"/>
<path d="M13.1553 17.9902L12.0967 16.9353V11.2947L13.1553 10.2364L14.2228 11.2947V16.9353L13.1553 17.9902Z" fill="#444444"/>
<path d="M46.863 17.9902L45.7954 16.9353V11.2947L46.863 10.2364L47.9171 11.2947V16.9353L46.863 17.9902Z" fill="#444444"/>
<path d="M23.8747 39.748H13.2795C12.6425 39.748 12.0967 39.2602 12.0967 38.6892C12.0967 38.119 12.6425 37.6311 13.2795 37.6311H23.8747C24.5117 37.6311 25.0576 38.119 25.0576 38.6892C25.0576 39.2602 24.5117 39.748 23.8747 39.748Z" fill="#444444"/>
</svg>
