<svg width="30" height="30" viewBox="0 0 30 30" fill="none" xmlns="http://www.w3.org/2000/svg">
<path d="M15.6351 25.8889V22.7977C19.5928 22.5079 22.7686 19.3684 23.0622 15.4561H26.1887C25.896 21.0589 21.3031 25.5991 15.6351 25.8889ZM3.81135 15.4561H6.93828C7.23146 19.3684 10.4072 22.5079 14.3649 22.7977V25.8889C8.69736 25.5991 4.10453 21.0589 3.81135 15.4561ZM14.3649 3.76754V6.85873C10.4072 7.14853 7.23146 10.288 6.93828 14.2003H3.81135C4.10453 8.59752 8.69736 4.05734 14.3649 3.76754ZM19.9841 15.4561H21.8402C21.5475 18.6922 18.9089 21.3004 15.6351 21.5902V19.7548C15.6351 19.4167 15.342 19.1269 15 19.1269C14.658 19.1269 14.3649 19.4167 14.3649 19.7548V21.5902C11.0911 21.3004 8.45296 18.6922 8.15978 15.4561H10.0164C10.3584 15.4561 10.6516 15.1663 10.6516 14.8282C10.6516 14.4901 10.3584 14.2003 10.0164 14.2003H8.15978C8.45296 10.9642 11.0911 8.35602 14.3649 8.06622V9.90162C14.3649 10.2397 14.658 10.5295 15 10.5295C15.342 10.5295 15.6351 10.2397 15.6351 9.90162V8.06622C18.9089 8.35602 21.5475 10.9642 21.8402 14.2003H19.9841C19.6416 14.2003 19.3484 14.4901 19.3484 14.8282C19.3484 15.1663 19.6416 15.4561 19.9841 15.4561ZM26.1887 14.2003H23.0622C22.7686 10.288 19.5928 7.14853 15.6351 6.85873V3.76754C21.3031 4.05734 25.896 8.59752 26.1887 14.2003ZM29.3161 14.2003H27.4594C27.1662 7.92132 22.0363 2.84984 15.6351 2.51174V0.628048C15.6351 0.289949 15.342 0.000148773 15 0.000148773C14.658 0.000148773 14.3649 0.289949 14.3649 0.628048V2.51174C8.01295 2.80154 2.88302 7.87302 2.54106 14.2003H0.63515C0.293187 14.2003 0 14.4901 0 14.8282C0 15.1663 0.293187 15.4561 0.63515 15.4561H2.54106C2.83424 21.7351 7.96417 26.8066 14.3649 27.1447V29.0284C14.3649 29.3665 14.658 29.6562 15 29.6562C15.342 29.6562 15.6351 29.3665 15.6351 29.0284V27.1447C21.9871 26.8549 27.1175 21.7834 27.4594 15.4561H29.3649C29.7068 15.4561 30 15.1663 30 14.8282C29.9512 14.4901 29.658 14.2003 29.3161 14.2003Z" fill="#333333"/>
</svg>
