<svg width="20" height="20" viewBox="0 0 20 20" fill="none" xmlns="http://www.w3.org/2000/svg">
<path d="M0 3.56105V7.12207H0.728597H1.45719V4.29876V1.47544H3.97085H6.48452V0.737737V3.19481e-05H3.24226H0V3.56105Z" fill="white"/>
<path d="M13.4971 0.737737V1.47544H16.0107H18.5244V4.29876V7.12207H19.2621H19.9998L19.9962 3.56469L19.9907 0.00913954L16.7448 0.00367498L13.4971 3.19481e-05V0.737737Z" fill="white"/>
<path d="M10.9468 6.32032V8.83398H13.4604H15.9741V6.32032V3.80666H13.4604H10.9468V6.32032ZM14.4987 6.32032V7.35857H13.4604H12.4222V6.32032V5.28207H13.4604H14.4987V6.32032Z" fill="white"/>
<path d="M4.53516 6.42074V8.92529H7.04882H9.56248V6.42074V3.91619H7.04882H4.53516V6.42074ZM8.07796 6.42074V7.45899H7.03971H6.00146L5.99599 6.43895C5.99417 5.87793 5.99599 5.40799 6.00146 5.39524C6.00692 5.37702 6.2255 5.37338 7.04335 5.37702L8.07796 5.38249V6.42074Z" fill="white"/>
<path d="M4.62646 13.2422V15.7559H7.14013H9.65379V13.2422V10.7285H7.14013H4.62646V13.2422ZM8.17838 13.2331V14.2804H7.14013H6.10187V13.2331V12.1857H7.14013H8.17838V13.2331Z" fill="white"/>
<path d="M10.9834 11.5574V12.3862H11.8213H12.6592L12.6555 13.2004L12.6501 14.0164L11.8359 14.0219L11.0198 14.0255V14.8543V15.6831H11.8486H12.6774V14.8634V14.0438H13.4788H14.2803V14.8634V15.6831H15.1091H15.9379V14.8543V14.0255H15.1273H14.3167V13.2059V12.3862H15.1273H15.9379V11.5574V10.7286H15.1091H14.2803V11.5574V12.3862H13.4697H12.6592V11.5574V10.7286H11.8213H10.9834V11.5574Z" fill="white"/>
<path d="M0 17.0674V20H3.24226H6.48452V19.2714V18.5428L3.9745 18.5392L1.4663 18.5337L1.46084 16.3333L1.45719 14.1348H0.728597H0V17.0674Z" fill="white"/>
<path d="M18.5207 16.3333L18.5153 18.5337L16.0071 18.5392L13.4971 18.5428V19.2714V20H16.7484H19.9998V17.0674V14.1348H19.2621H18.5244L18.5207 16.3333Z" fill="white"/>
</svg>
