<svg width="107" height="125" viewBox="0 0 107 125" fill="none" xmlns="http://www.w3.org/2000/svg">
<path d="M12.0619 28.3147L20.5581 118.884C20.6625 119.998 21.5844 120.838 22.7023 120.838H83.9158C85.034 120.838 85.9557 119.998 86.06 118.884L94.5563 28.3147H12.0619ZM83.9158 125H22.7023C19.4271 125 16.7263 122.538 16.4203 119.273L7.71077 26.4303C7.65609 25.8485 7.84939 25.2709 8.24324 24.8367C8.63684 24.4024 9.19477 24.1566 9.77963 24.1566H96.8384C97.4233 24.1566 97.9811 24.4024 98.3753 24.8367C98.769 25.2709 98.9618 25.8485 98.9073 26.4303L90.1978 119.273C89.8917 122.538 87.1909 125 83.9158 125Z" fill="white"/>
<path d="M4.15586 24.1585H102.462V15.9807H4.15586V24.1585ZM104.54 28.3184H2.07791C0.930388 28.3184 0 27.3879 0 26.2405V13.8987C0 12.7513 0.930388 11.8209 2.07791 11.8209H104.54C105.687 11.8209 106.618 12.7513 106.618 13.8987V26.2405C106.618 27.3879 105.687 28.3184 104.54 28.3184Z" fill="white"/>
<path d="M37.0946 102.79C36.005 102.79 35.0903 101.943 35.0224 100.841L32.0997 53.3588C32.0974 53.319 32.0962 53.2752 32.0962 53.2315C32.0962 50.2126 29.6408 47.7546 26.6232 47.7546C25.4756 47.7546 24.5454 46.8239 24.5454 45.6744C24.5454 44.5249 25.4756 43.5942 26.6232 43.5942C31.9098 43.5942 36.2149 47.8819 36.2514 53.1639L39.1705 100.583C39.2412 101.732 38.3698 102.718 37.2242 102.786C37.1805 102.79 37.1375 102.79 37.0946 102.79Z" fill="white"/>
<path d="M54.5726 102.79C53.425 102.79 52.4948 101.859 52.4948 100.71V53.2315C52.4948 47.9654 51.8391 47.7546 50.2238 47.7546C49.0766 47.7546 48.146 46.8239 48.146 45.6744C48.146 44.5249 49.0766 43.5942 50.2238 43.5942C56.6508 43.5942 56.6508 49.6279 56.6508 53.2315V100.71C56.6508 101.859 55.7202 102.79 54.5726 102.79Z" fill="white"/>
<path d="M70.2975 102.79C70.2546 102.79 70.2113 102.79 70.1676 102.786C69.022 102.718 68.1509 101.732 68.2213 100.583L71.1403 53.1639C71.1769 47.8819 75.4819 43.5942 80.7685 43.5942C81.9161 43.5942 82.8463 44.5249 82.8463 45.6744C82.8463 46.8239 81.9161 47.7546 80.7685 47.7546C77.7513 47.7546 75.296 50.2126 75.296 53.2315C75.296 53.2752 75.2948 53.319 75.292 53.3588L72.3698 100.841C72.3014 101.943 71.3867 102.79 70.2975 102.79Z" fill="white"/>
<path d="M63.2954 15.9819C62.1478 15.9819 61.2174 15.0481 61.2174 13.902V7.80635C61.2174 5.79428 59.5838 4.16 57.5757 4.16H49.0423C47.0342 4.16 45.4007 5.79428 45.4007 7.80635V13.902C45.4007 15.0481 44.4702 15.9819 43.3226 15.9819C42.1751 15.9819 41.2446 15.0481 41.2446 13.902V7.80635C41.2446 3.50206 44.7425 3.33786e-05 49.0423 3.33786e-05H57.5757C61.8751 3.33786e-05 65.373 3.50206 65.373 7.80635V13.902C65.373 15.0481 64.443 15.9819 63.2954 15.9819Z" fill="white"/>
</svg>
