<svg width="30" height="30" viewBox="0 0 30 30" fill="none" xmlns="http://www.w3.org/2000/svg">
<path d="M22.5327 14.2186C22.1892 14.2186 21.8946 14.5098 21.8946 14.8495C21.8946 18.5862 18.8018 21.6435 15.0218 21.6435C14.6782 21.6435 14.3838 21.9347 14.3838 22.2744C14.3838 22.6141 14.6782 22.9053 15.0218 22.9053C19.489 22.9053 23.1709 19.3141 23.1709 14.8495C23.1709 14.5098 22.8763 14.2186 22.5327 14.2186Z" fill="white"/>
<path d="M15.6599 7.42517C15.6599 7.08547 15.3652 6.7943 15.0218 6.7943C10.5545 6.7943 6.87256 10.3854 6.87256 14.8501C6.87256 15.1898 7.16713 15.481 7.51062 15.481C7.85449 15.481 8.14906 15.1898 8.14906 14.8501C8.14906 11.1134 11.2417 8.05605 15.0218 8.05605C15.3652 8.05605 15.6599 7.76488 15.6599 7.42517Z" fill="white"/>
<path d="M15.6525 22.3604C15.6525 22.0168 15.3613 21.7222 15.0216 21.7222C11.2849 21.7222 8.22757 18.6295 8.22757 14.8495C8.22757 14.5058 7.9364 14.2114 7.59669 14.2114C7.25699 14.2114 6.96582 14.5058 6.96582 14.8495C6.96582 19.3167 10.557 22.9985 15.0216 22.9985C15.3613 22.9985 15.6525 22.704 15.6525 22.3604Z" fill="white"/>
<path d="M22.4464 15.4885C22.7861 15.4885 23.0773 15.1939 23.0773 14.8504C23.0773 10.3831 19.4862 6.70117 15.0215 6.70117C14.6818 6.70117 14.3906 6.99574 14.3906 7.33923C14.3906 7.6831 14.6818 7.97767 15.0215 7.97767C18.7582 7.97767 21.8155 11.0703 21.8155 14.8504C21.8155 15.1939 22.1067 15.4885 22.4464 15.4885Z" fill="white"/>
<path d="M28.7673 16.0628H25.4785C25.184 16.0628 24.9384 16.2569 24.8404 16.5966C24.5948 18.004 24.0547 19.3142 23.22 20.4789C23.024 20.7216 23.073 21.0613 23.269 21.2554L25.5766 23.5362L23.8092 25.2833L21.5021 23.0024C21.3056 22.8083 20.962 22.7598 20.7164 22.9539C19.5381 23.7789 18.2128 24.3127 16.789 24.5554C16.4947 24.6039 16.249 24.8465 16.249 25.1862V28.4377H13.7947V25.1862C13.7947 24.8951 13.5983 24.6524 13.2546 24.5554C11.831 24.3127 10.5056 23.7789 9.32743 22.9539C9.08193 22.7598 8.73824 22.8083 8.54185 23.0024L6.23464 25.2833L4.46732 23.5362L6.77472 21.2554C6.97092 21.0613 7.02023 20.7216 6.82364 20.4789C5.98914 19.3142 5.44911 18.004 5.2036 16.5966C5.15449 16.3055 4.90903 16.0628 4.56554 16.0628H1.27616V13.6364H4.56554C4.86011 13.6364 5.10543 13.4423 5.2036 13.1026C5.44911 11.6952 5.98914 10.3849 6.82364 9.22025C7.02023 8.9776 6.97092 8.6379 6.77472 8.44379L4.46732 6.16293L6.23464 4.41589L8.54185 6.69675C8.73824 6.89086 9.08193 6.93939 9.32743 6.74528C10.5056 5.92029 11.831 5.38647 13.2546 5.14383C13.5492 5.0953 13.7947 4.85265 13.7947 4.51295V1.26152H16.249V4.51295C16.249 4.80412 16.4456 5.04677 16.789 5.14383C18.2128 5.38647 19.5381 5.92029 20.7164 6.74528C20.962 6.93939 21.3056 6.89086 21.5021 6.69675L23.8092 4.41589L25.5766 6.16293L23.269 8.44379C23.073 8.6379 23.024 8.9776 23.22 9.22025C24.0547 10.3849 24.5948 11.6952 24.8404 13.1026C24.8894 13.3937 25.135 13.6364 25.4785 13.6364H28.7673V16.0628ZM29.4055 12.3746H26.0182C25.7236 11.1614 25.233 9.99671 24.5458 8.92907L26.9509 6.55116C27.1965 6.30852 27.1965 5.92029 26.9509 5.67764L24.3003 3.05709C24.0547 2.81444 23.6616 2.81444 23.4166 3.05709L21.011 5.435C19.9307 4.7556 18.7529 4.27031 17.5257 3.97914V0.630646C17.5257 0.290945 17.2311 -0.000228882 16.887 -0.000228882H13.1565C12.8128 -0.000228882 12.5182 0.290945 12.5182 0.630646V3.97914C11.2909 4.27031 10.1128 4.7556 9.03281 5.435L6.62724 3.05709C6.38174 2.81444 5.98914 2.81444 5.74368 3.05709L3.09279 5.67764C2.84728 5.92029 2.84728 6.30852 3.09279 6.55116L5.49817 8.92907C4.811 9.99671 4.32004 11.1614 4.02547 12.3746H0.638108C0.294621 12.3746 0 12.6658 0 13.0055V16.6937C0 17.0334 0.294621 17.3246 0.638108 17.3246H4.02547C4.32004 18.5378 4.811 19.7025 5.44911 20.7701L3.04368 23.148C2.79822 23.3907 2.79822 23.7789 3.04368 24.0215L5.69457 26.6421C5.94007 26.8847 6.33267 26.8847 6.57813 26.6421L8.98356 24.2642C10.0635 24.9436 11.2418 25.4289 12.4693 25.6715V29.02C12.4693 29.3597 12.7637 29.6509 13.1073 29.6509H16.838C17.1821 29.6509 17.4766 29.3597 17.4766 29.02V25.6715C18.7039 25.3803 19.8817 24.8951 20.962 24.2642L23.3675 26.6421C23.6126 26.8847 24.0057 26.8847 24.2513 26.6421L26.9019 24.0215C27.1475 23.7789 27.1475 23.3907 26.9019 23.148L24.4963 20.7701C25.184 19.7025 25.6746 18.5378 25.9692 17.3246H29.3565C29.7001 17.3246 29.9946 17.0334 29.9946 16.6937V13.0055C30.0437 12.6658 29.7491 12.3746 29.4055 12.3746Z" fill="white"/>
</svg>
