<svg width="14" height="20" viewBox="0 0 14 20" fill="none" xmlns="http://www.w3.org/2000/svg">
<path d="M3.13914 0.0405045C2.32501 0.191971 1.6472 0.54413 1.0792 1.1197C0.590719 1.61197 0.268853 2.17618 0.0833066 2.8805L0 3.18722V10.0032V16.8192L0.0833066 17.1259C0.268853 17.8302 0.590719 18.3945 1.0792 18.8867C1.55632 19.3676 2.15461 19.716 2.81728 19.8978L3.1808 20H6.77812H10.3755L10.7163 19.9129C10.9056 19.8675 11.2426 19.7349 11.4736 19.6251C12.2612 19.2351 12.833 18.6633 13.2155 17.8795C13.5562 17.1789 13.5865 17.0161 13.6055 15.6529C13.6206 14.5093 13.6168 14.4866 13.5335 14.3162C13.3291 13.8883 12.7194 13.7823 12.3483 14.108C12.159 14.2746 12.1438 14.3654 12.1287 15.5128C12.1135 16.5579 12.1097 16.6034 12.0113 16.8987C11.7727 17.622 11.2237 18.171 10.4928 18.421L10.1861 18.5232H6.83492C3.12778 18.5232 3.30576 18.5346 2.75669 18.2733C2.14325 17.9817 1.65856 17.3531 1.51466 16.6677C1.43136 16.2701 1.43136 3.73629 1.51466 3.33869C1.65856 2.6533 2.14325 2.02472 2.75669 1.73314C3.30576 1.47186 3.12778 1.48322 6.83492 1.48322H10.1861L10.4928 1.58546C11.2275 1.83538 11.7727 2.38066 12.0113 3.1077C12.1097 3.40306 12.1135 3.4485 12.1287 4.49362C12.1438 5.43271 12.1514 5.58797 12.212 5.70535C12.3407 5.95906 12.5641 6.08402 12.886 6.08402C13.1738 6.08402 13.4124 5.94012 13.5335 5.69778C13.6093 5.53874 13.613 5.47437 13.613 4.50498C13.613 3.39927 13.579 3.06983 13.4086 2.57378C13.1814 1.90733 12.7383 1.27117 12.2006 0.839491C11.8295 0.536558 11.1896 0.214691 10.7352 0.0935192C10.4133 0.0102119 10.402 0.0102119 6.91066 0.00263786C4.1729 -0.00493431 3.3512 0.00263786 3.13914 0.0405045Z" fill="white"/>
<path d="M9.86801 6.58029C9.7014 6.64466 9.56129 6.77341 9.48556 6.9173C9.39089 7.10285 9.38332 7.43986 9.47041 7.61026C9.50449 7.67842 9.87559 8.07602 10.2921 8.49634L11.0532 9.26503H8.37607C5.81629 9.26503 5.69133 9.26882 5.55501 9.33698C5.04759 9.59826 4.99079 10.2458 5.44519 10.6055L5.59287 10.7229L8.31548 10.7418L11.0381 10.7608L10.3338 11.4613C9.49313 12.2944 9.40983 12.4117 9.40983 12.7185C9.40983 13.2335 9.81121 13.5477 10.3451 13.4493C10.4701 13.4266 10.6708 13.2448 11.981 11.9422C12.9731 10.9539 13.4918 10.4086 13.5411 10.3064C13.632 10.1132 13.632 9.89362 13.5411 9.7005C13.454 9.51495 10.5799 6.63709 10.4209 6.58029C10.2921 6.53106 9.99297 6.53106 9.86801 6.58029Z" fill="white"/>
</svg>
