<svg width="60" height="60" viewBox="0 0 60 60" fill="none" xmlns="http://www.w3.org/2000/svg">
<path d="M18.5154 45.4682H41.7384V26.6152C41.7384 26.0284 42.2443 25.5256 42.8356 25.5256H47.0585V21.0013L36.7557 17.3985C35.4048 19.8278 32.8712 21.3362 30.0846 21.3362C27.298 21.3362 24.7644 19.8278 23.498 17.3985L13.1961 21.0013V25.5256H17.4182C18.0087 25.5256 18.5154 26.0284 18.5154 26.6152V45.4682ZM42.751 47.5625H17.4182C16.8269 47.5625 16.3202 47.0605 16.3202 46.4729V27.6208H12.098C11.5067 27.6208 11 27.118 11 26.5312V20.2466C11 19.8278 11.2538 19.4089 11.6759 19.241L23.6672 15.0516C24.2577 14.8845 24.849 15.1355 25.0182 15.7222C25.7779 17.8174 27.7202 19.241 30 19.241C32.2807 19.241 34.2221 17.8174 34.9826 15.7222C35.151 15.1355 35.7423 14.8845 36.3336 15.0516L48.3249 19.241C48.7471 19.4089 49 19.7438 49 20.2466V26.5312C49 27.118 48.4933 27.6208 47.902 27.6208H43.6798V46.4729C43.849 47.0605 43.3423 47.5625 42.751 47.5625Z" fill="white"/>
<path d="M42.7522 27.623C42.4147 27.623 42.0772 27.4552 41.908 27.2042C40.8108 25.7797 39.3752 22.0931 41.908 18.6574C42.2455 18.1546 42.9214 18.0707 43.3436 18.4056C43.8503 18.7405 43.9349 19.4112 43.5973 19.8301C41.4012 22.8469 43.5127 25.7797 43.5973 25.9468C43.9349 26.4496 43.8503 27.0363 43.3436 27.3712C43.1744 27.5391 43.006 27.623 42.7522 27.623Z" fill="white"/>
<path d="M17.4179 27.623C17.1642 27.623 16.9958 27.5391 16.8266 27.4552C16.3199 27.1203 16.2353 26.4496 16.5737 26.0307C16.6583 25.8628 18.7689 23.0147 16.5737 19.914C16.2353 19.4112 16.3199 18.8244 16.8266 18.4895C17.3333 18.1546 17.9247 18.2377 18.2622 18.7405C20.7958 22.1762 19.3602 25.8628 18.2622 27.2881C18.0938 27.4552 17.7555 27.623 17.4179 27.623Z" fill="white"/>
<path d="M34.3074 43.3711H17.4188C16.8275 43.3711 16.3208 42.8691 16.3208 42.2816C16.3208 41.6948 16.8275 41.1928 17.4188 41.1928H34.3074C34.8987 41.1928 35.4054 41.6948 35.4054 42.2816C35.4054 42.8691 34.8987 43.3711 34.3074 43.3711Z" fill="white"/>
<path d="M49.4428 49.3568C38.7811 60 21.3246 60 10.6618 49.3568C5.43496 44.1391 2.61288 37.3562 2.61288 29.9478C2.61288 14.8167 14.8436 2.60833 30 2.60833C37.3177 2.60833 44.216 5.4255 49.4428 10.6432C60.1046 21.2864 60.1046 38.6081 49.4428 49.3568ZM30 0C13.3803 0 0 13.4604 0 30.0522C0 46.643 13.4838 60 30 60C46.6207 60 60 46.5386 60 30.0522C60 13.356 46.6207 0 30 0Z" fill="white"/>
<rect x="8" y="49.3867" width="58.5297" height="3" transform="rotate(-45 8 49.3867)" fill="white"/>
</svg>
