<svg width="130" height="127" viewBox="0 0 130 127" fill="none" xmlns="http://www.w3.org/2000/svg">
<path d="M124.037 46.1129L115.482 54.6472L97.8652 37.0719L106.424 28.5358C107.424 27.5338 109.178 27.5303 110.188 28.5367L124.035 42.3516C125.073 43.3889 125.073 45.0765 124.037 46.1129ZM84.659 116.103C84.659 118.958 82.3314 121.279 79.4713 121.279H10.3744C7.51513 121.279 5.18675 118.958 5.18675 116.103V22.6083C5.18675 19.7539 7.51513 17.4335 10.3744 17.4335H11.8451C12.5808 24.5789 16.334 29.7017 21.1595 29.7017C22.5931 29.7017 23.7528 28.5437 23.7528 27.1143C23.7528 25.6849 22.5931 24.5269 21.1595 24.5269C19.6914 24.5269 17.6784 21.8205 17.0813 17.4335H35.6138C36.3496 24.5789 40.1027 29.7017 44.9282 29.7017C46.3618 29.7017 47.5215 28.5437 47.5215 27.1143C47.5215 25.6849 46.3618 24.5269 44.9282 24.5269C43.4593 24.5269 41.447 21.8205 40.8491 17.4335H59.3842C60.12 24.5789 63.874 29.7017 68.6995 29.7017C70.133 29.7017 71.2929 28.5437 71.2929 27.1143C71.2929 25.6849 70.133 24.5269 68.6995 24.5269C67.2305 24.5269 65.2184 21.8205 64.6204 17.4335H79.4713C82.3314 17.4335 84.659 19.7539 84.659 22.6083V42.9306L47.8987 79.6068C47.7212 79.7848 47.2724 80.5638 47.2053 80.859L40.9056 108.378C40.4825 110.216 42.1263 111.898 44.0112 111.477L71.5941 105.194C71.9907 105.104 72.6708 104.68 72.8484 104.503L84.659 92.7201V116.103ZM21.1595 5.17578C22.6266 5.17578 24.6361 7.87688 25.2359 12.2577H17.083C17.6828 7.87688 19.6923 5.17578 21.1595 5.17578ZM44.9282 5.17578C46.3953 5.17578 48.4048 7.87688 49.0046 12.2577H40.8517C41.4506 7.87688 43.461 5.17578 44.9282 5.17578ZM68.6995 5.17578C70.1666 5.17578 72.1762 7.87688 72.7759 12.2577H64.6222C65.222 7.87688 67.2323 5.17578 68.6995 5.17578ZM71.2063 98.8221C68.0821 94.0201 68.6191 87.5259 72.8095 83.3028C72.8227 83.2905 72.8369 83.279 72.8501 83.2658L104.841 51.3494L111.814 58.3063L71.2063 98.8221ZM94.1977 40.7318L101.173 47.6904L69.2144 79.5759C69.2038 79.5856 69.1906 79.5882 69.18 79.5979C69.1659 79.6129 69.1544 79.6288 69.1394 79.6438C64.911 83.8237 58.4002 84.3621 53.5933 81.2442L94.1977 40.7318ZM51.3638 85.9299C54.1321 87.5726 57.2475 88.4125 60.3735 88.4125C61.7726 88.4125 63.1665 88.2283 64.5339 87.8996C63.4677 92.3113 64.1258 97.0437 66.508 101.043L46.8811 105.515L51.3638 85.9299ZM127.706 38.6934L113.858 24.8794C110.889 21.9165 105.718 21.9227 102.754 24.8776C90.6468 36.9556 93.105 34.503 89.8465 37.7549V22.6083C89.8465 16.9012 85.1933 12.2577 79.4713 12.2577H78.013C77.2737 5.11761 73.5214 3.8147e-05 68.6995 3.8147e-05C63.8766 3.8147e-05 60.1244 5.11761 59.386 12.2577H54.2416C53.5032 5.11761 49.751 3.8147e-05 44.9282 3.8147e-05C40.1054 3.8147e-05 36.3531 5.11761 35.6146 12.2577H30.473C29.7345 5.11761 25.9823 3.8147e-05 21.1595 3.8147e-05C16.3366 3.8147e-05 12.5844 5.11761 11.846 12.2577H10.3744C4.65235 12.2577 0 16.9012 0 22.6083V116.103C0 121.81 4.65235 126.455 10.3744 126.455H79.4713C85.1933 126.455 89.8465 121.81 89.8465 116.103V87.5426C121.758 55.703 114.367 63.0757 127.707 49.7711C130.764 46.7166 130.765 41.7488 127.706 38.6934Z" fill="white"/>
</svg>
