<svg width="14" height="19" viewBox="0 0 14 19" fill="none" xmlns="http://www.w3.org/2000/svg">
<path d="M13.5444 18.2H4.1116L3.92483 18.1385L0.113617 15.1867L0 14.9506V0.922363L0.296391 0.622175H8.89784L9.19421 0.922363L8.89784 1.22088H0.596432V14.8047L4.21184 17.6026H13.2467V3.90525L13.5444 3.60808L13.8444 3.90525V17.9011L13.5444 18.2Z" fill="#040606"/>
<path d="M1.14557 15.2259L3.76273 17.2844V15.2259H1.14557ZM4.06196 18.2L3.87674 18.138L0.097102 15.1613L0 14.8259L0.278362 14.6222H4.06196L4.35556 14.9232V17.8986L4.18987 18.1683L4.06196 18.2Z" fill="#040606"/>
<path d="M5.78911 9.54605L6.58441 10.1796L13.0686 2.19382L13.0533 2.04582L12.4208 1.54479L12.271 1.56161L5.78911 9.54605ZM6.62879 10.8889L6.44357 10.8246L5.17903 9.82292L5.1333 9.40825L11.8041 1.19342C12.0494 0.893467 12.4926 0.84699 12.795 1.08531L13.4247 1.586C13.7284 1.82563 13.7768 2.26469 13.5355 2.56201L6.86474 10.7768L6.62879 10.8889Z" fill="#040606"/>
<path d="M12.9588 1.24967L13.1477 1.42121L13.5655 0.836253L13.5534 0.689321L13.5032 0.646795L13.4365 0.624631L13.3753 0.664711L12.9588 1.24967ZM13.1926 2.17773L13.0174 2.10918L12.3926 1.54356L12.2891 1.33193L12.3461 1.09991L12.9407 0.269231L13.3753 -4.31538e-05L13.8539 0.156394L13.9004 0.199284L14.0002 1.22892L13.4096 2.05962L13.1926 2.17773Z" fill="#040606"/>
<path d="M8.46769 4.66675L8.28723 4.60288L8.24463 4.18955L10.5357 1.28906L10.9418 1.24453L11.623 1.79705L11.6669 2.21038L11.2607 2.25524L10.8069 1.88548L8.69464 4.55538L8.46769 4.66675Z" fill="#040606"/>
<path d="M4.98383 10.8894L5.44537 11.2731L6.09695 10.6789L5.40316 10.0967L4.98383 10.8894ZM5.45419 11.9778L5.26872 11.9099L4.42808 11.2052L4.35547 10.8201L5.05414 9.48648L5.25597 9.33334L5.4964 9.39438L6.73577 10.4296L6.84436 10.6615L6.7446 10.8962L5.64587 11.9007L5.45419 11.9778Z" fill="#040606"/>
<path d="M4.43623 12.2888L4.24666 12.2245L4.2002 11.8212L4.81637 11.0881L5.24297 11.0444L5.28908 11.4489L4.67463 12.1807L4.43623 12.2888Z" fill="#040606"/>
<path d="M7.32513 7.64287L6.98933 8.06101L8.38351 7.91026L8.7219 7.49117L7.32513 7.64287ZM6.32386 8.71118L6.06689 8.56206L6.09577 8.24292L6.94746 7.19228L7.14539 7.08556L9.35557 6.84452L9.64467 6.99268L9.61677 7.31021L8.76377 8.36215L8.56748 8.46886L6.35566 8.70895L6.32386 8.71118Z" fill="#040606"/>
<path d="M5.46493 3.57764H3.09026L2.7998 3.26582L3.09026 2.95541H5.46493L5.75536 3.26582L5.46493 3.57764Z" fill="#040606"/>
<path d="M5.45758 6.37769H4.34272L4.04443 6.0657L4.34272 5.75546H5.45758L5.75554 6.0657L5.45758 6.37769Z" fill="#040606"/>
<path d="M3.7519 8.55566H2.16023L1.8667 8.24367L2.16023 7.93344H3.7519L4.04448 8.24367L3.7519 8.55566Z" fill="#040606"/>
<path d="M11.6644 9.33325H10.5782L10.2666 9.09952L10.5782 8.86659H11.6644L11.9777 9.09952L11.6644 9.33325Z" fill="#040606"/>
<path d="M8.08247 12.1333L7.77783 11.8287L8.07841 11.5189C11.2498 11.5027 11.2498 11.5027 11.3556 11.6088L11.3532 12.0447L11.1012 12.1305C10.9159 12.1226 9.16266 12.1278 8.08247 12.1333Z" fill="#040606"/>
<path d="M9.65223 14.4668H6.37217L6.06689 14.1562L6.37217 13.8446H9.65223L9.95578 14.1562L9.65223 14.4668Z" fill="#040606"/>
</svg>
