<svg width="60" height="61" viewBox="0 0 60 61" fill="none" xmlns="http://www.w3.org/2000/svg">
<path d="M57.2506 57.1349H3.07997V55.6528C5.36041 55.6528 55.7674 55.6528 57.2506 55.6528V57.1349ZM7.299 51.4326C9.58058 51.4326 51.2054 51.4326 52.9169 51.4326V52.8023H7.299V51.4326ZM13.0023 30.6781H15.5111V32.8439C15.5111 33.414 15.8518 33.9852 16.4219 34.2124C16.9932 34.4407 17.5632 34.2124 18.0198 33.8705L24.2921 26.7998C24.7475 26.2297 24.7475 25.4313 24.2921 24.9759L18.0198 17.904C17.6779 17.4486 16.9932 17.334 16.4219 17.5622C15.8518 17.7905 15.5111 18.247 15.5111 18.9307V21.0987H13.0023V2.96534H47.2146V48.5821H13.0023V30.6781ZM21.3269 25.7732L18.3617 29.0803V22.4661L21.3269 25.7732ZM5.93053 23.6074C9.12406 23.6074 12.3176 23.6074 15.5111 23.6074V27.8265C12.3176 27.8265 9.12406 27.8265 5.93053 27.8265V23.6074ZM58.6191 52.8023H55.7674V49.9506C55.7674 49.1522 55.0826 48.4685 54.2854 48.4685H50.0652V1.48331C50.0652 0.683788 49.3815 0.000102997 48.5831 0.000102997H11.6339C10.8344 0.000102997 10.1507 0.683788 10.1507 1.48331V20.7557H4.44733C3.65008 20.7557 3.07997 21.4394 3.07997 22.2378V29.3097C3.07997 30.1069 3.76365 30.7917 4.44733 30.7917H10.1507V48.5821H5.81696C5.01858 48.5821 4.33487 49.2669 4.33487 50.0642V52.9158H1.4832C0.68482 52.9158 0 53.6006 0 54.3979V58.7316C0 59.53 0.68482 60.2148 1.4832 60.2148H58.5044C59.3028 60.2148 59.9876 59.53 59.9876 58.7316V54.3979C60.1012 53.4859 59.4175 52.8023 58.6191 52.8023Z" fill="#444444"/>
<path d="M42.9954 5.81573H17.3348C16.5364 5.81573 15.8516 6.49939 15.8516 7.29777V13C15.8516 13.7995 16.5364 14.4832 17.3348 14.4832C18.1331 14.4832 18.7032 13.7995 18.7032 13V8.78098H41.5122V45.8449C41.5122 46.6433 42.197 47.3281 42.9954 47.3281C43.7926 47.3281 44.4774 46.6433 44.4774 45.8449V7.1842C44.3627 6.38582 43.7926 5.81573 42.9954 5.81573Z" fill="#444444"/>
</svg>
