<svg width="60" height="60" viewBox="0 0 60 60" fill="none" xmlns="http://www.w3.org/2000/svg">
<path d="M30.3193 59.3496H2.30853L1.27886 58.3194L2.30853 57.2892H30.3193C45.5496 57.2892 57.935 44.8997 57.935 29.682C57.935 14.455 45.5496 2.07452 30.3193 2.07452C15.6782 2.07452 3.56597 13.5116 2.74896 28.1159L1.66466 29.0918L0.688477 28.0032C1.56011 12.2998 14.5799 0.000640869 30.3193 0.000640869C46.6851 0.000640869 60.0001 13.3071 60.0001 29.682C60.0001 46.043 46.6851 59.3496 30.3193 59.3496Z" fill="#444444"/>
<path d="M30.3197 13.5254L29.2842 12.4902V10.0759L30.3197 9.04071L31.3552 10.0759V12.4902L30.3197 13.5254Z" fill="#444444"/>
<path d="M42.4764 18.5625L41.75 18.2535V16.7919L43.4526 15.0898H44.9134V16.5514L43.2027 18.2535L42.4764 18.5625Z" fill="#444444"/>
<path d="M49.9303 30.7168H47.5153L46.4658 29.6816L47.5153 28.6383H49.9303L50.9658 29.6816L49.9303 30.7168Z" fill="#444444"/>
<path d="M44.1871 44.5684L43.4526 44.2744L41.75 42.5584V41.0968H43.2027L44.9134 42.8128V44.2744L44.1871 44.5684Z" fill="#444444"/>
<path d="M30.3197 50.3086L29.2842 49.2735V46.8592L30.3197 45.824L31.3552 46.8592V49.2735L30.3197 50.3086Z" fill="#444444"/>
<path d="M18.1666 18.5625L17.4402 18.2535L15.7236 16.5514V15.0898H17.1856L18.9022 16.7919V18.2535L18.1666 18.5625Z" fill="#444444"/>
<path d="M30.3514 54.4609L27.5738 54.3021L26.665 53.1675L27.8005 52.2507C34.7096 53.0086 41.4746 50.635 46.3906 45.7331C50.6802 41.4494 53.0418 35.7402 53.0418 29.6812C53.0418 23.6083 50.6802 17.9037 46.3906 13.6153C42.0917 9.32585 36.3901 6.96617 30.32 6.96617C24.2453 6.96617 18.553 9.32585 14.2622 13.6153C10.7222 17.1555 8.49788 21.625 7.81684 26.5582L6.64537 27.4435L5.75977 26.2863C6.50937 20.8989 8.93715 16.0064 12.7967 12.1491C17.4722 7.4797 23.7049 4.88765 30.32 4.88765C36.9479 4.88765 43.1679 7.4797 47.8573 12.1491C52.5281 16.8371 55.1069 23.0553 55.1069 29.6812C55.1069 36.2932 52.5281 42.5253 47.8573 47.1994C43.1586 51.8831 36.9026 54.4609 30.3514 54.4609Z" fill="#444444"/>
<path d="M38.083 30.7168H30.3197L29.2842 29.6816V19.9245L30.3197 18.894L31.3552 19.9245V28.6383H38.083L39.1127 29.6816L38.083 30.7168Z" fill="#444444"/>
<path d="M12.7719 31.5142C6.43785 31.5142 1.28545 36.6651 1.28545 42.9954C1.28545 49.3276 6.43785 54.4805 12.7719 54.4805C19.1041 54.4805 24.2584 49.3276 24.2584 42.9954C24.2584 36.6651 19.1041 31.5142 12.7719 31.5142ZM12.7719 55.3887C5.93791 55.3887 0.376953 49.8313 0.376953 42.9954C0.376953 36.1653 5.93791 30.606 12.7719 30.606C19.6084 30.606 25.1694 36.1653 25.1694 42.9954C25.1694 49.8313 19.6084 55.3887 12.7719 55.3887Z" fill="#444444"/>
<path d="M12.7719 52.9824C10.5425 52.9824 8.43469 52.2628 6.67487 50.9041L6.59473 50.2665L7.23004 50.1864C8.83006 51.419 10.7468 52.0717 12.7719 52.0717C14.7287 52.0717 16.5921 51.4591 18.1594 50.3007L18.7952 50.3965L18.6994 51.0316C16.9738 52.3067 14.9237 52.9824 12.7719 52.9824Z" fill="#444444"/>
<path d="M21.6803 46.8516L21.518 46.8227L21.2565 46.237C21.6495 45.2046 21.8503 44.1146 21.8503 42.9983C21.8503 40.151 20.5479 37.521 18.2803 35.7881L18.1963 35.1511L18.8341 35.0651C21.3269 36.9734 22.7588 39.8647 22.7588 42.9983C22.7588 44.2255 22.5374 45.4259 22.104 46.5614L21.6803 46.8516Z" fill="#444444"/>
<path d="M6.82753 34.9338L6.95362 35.0399L6.88716 35.6779C6.03072 36.3755 5.31178 37.219 4.7536 38.1858C3.32993 40.6517 3.14289 43.5804 4.24021 46.215L3.99447 46.8087L3.39916 46.5643C2.19442 43.6652 2.40001 40.4454 3.96682 37.7316C4.58045 36.6687 5.37237 35.7398 6.31548 34.9733L6.82753 34.9338Z" fill="#444444"/>
<path d="M11.8357 44.3993L11.3602 36.4383L11.2738 33.4395H14.4507L14.3642 36.4383L13.9104 44.3993H11.8357ZM12.8514 50.1381C11.7276 50.1381 10.8848 49.2535 10.8848 48.0669C10.8848 46.8803 11.7276 46.0173 12.8514 46.0173C13.9968 46.0173 14.8397 46.8803 14.8397 48.0669C14.8397 49.2535 13.9968 50.1381 12.8514 50.1381Z" fill="#444444"/>
</svg>
