<svg width="60" height="53" viewBox="0 0 60 53" fill="none" xmlns="http://www.w3.org/2000/svg">
<path d="M30.039 42.8821C32.6584 42.8821 35.173 42.5672 37.6875 42.0445C38.0002 41.9395 38.42 42.0444 38.6299 42.2533L47.8483 48.2263L46.5911 39.7382C46.4861 39.2144 46.8009 38.6906 47.2197 38.3767C53.7148 34.4991 57.4855 28.841 57.4855 22.6581C57.4855 11.551 45.2289 2.54019 30.1439 2.54019C15.058 2.54019 2.80134 11.551 2.80134 22.6581C2.80134 33.7663 14.954 42.8821 30.039 42.8821ZM8.98262 6.5218C20.6106 -2.17516 39.4684 -2.17516 51.0964 6.5218C56.8579 10.8183 60 16.5813 60 22.7631C60 29.5748 56.1244 35.8616 49.2105 40.262L50.7816 50.7414C50.8865 51.2652 50.6776 51.789 50.1529 51.999C49.7331 52.3128 49.2105 52.3128 48.6868 51.999L37.4776 44.7685C27.8393 46.6548 16.8399 44.9774 8.7738 39.0055C-2.95916 30.0986 -2.95918 15.4287 8.98262 6.5218Z" fill="#444444"/>
<path d="M37.7643 19.7659C36.4008 19.7659 35.2942 20.8715 35.2942 22.2359C35.2942 23.6004 36.4008 24.707 37.7643 24.707C39.1297 24.707 40.2354 23.6004 40.2354 22.2359C40.2354 20.8715 39.1297 19.7659 37.7643 19.7659Z" fill="#444444"/>
<path d="M30.0006 19.7659C28.6362 19.7659 27.5295 20.8715 27.5295 22.2359C27.5295 23.6004 28.6362 24.707 30.0006 24.707C31.3651 24.707 32.4707 23.6004 32.4707 22.2359C32.4707 20.8715 31.3651 19.7659 30.0006 19.7659Z" fill="#444444"/>
<path d="M22.235 19.7659C20.8715 19.7659 19.7649 20.8715 19.7649 22.2359C19.7649 23.6004 20.8715 24.707 22.235 24.707C23.6004 24.707 24.7061 23.6004 24.7061 22.2359C24.7061 20.8715 23.6004 19.7659 22.235 19.7659Z" fill="#444444"/>
</svg>
