<svg width="60" height="53" viewBox="0 0 60 53" fill="none" xmlns="http://www.w3.org/2000/svg">
<path d="M51.1743 32.1988C50.5842 32.7798 50.6931 33.1973 51.6826 34.205C52.1002 34.6407 52.4452 35.0129 52.4452 35.0401C52.4452 35.0674 51.8006 35.1128 51.0199 35.14C49.4132 35.1945 48.578 35.3669 47.6248 35.839C45.6822 36.8103 44.2933 38.4715 43.7305 40.4868C43.6215 40.859 43.5035 41.6669 43.4581 42.3387C43.3673 43.6731 43.1767 44.3812 42.6774 45.1982C42.2508 45.8972 41.2704 46.805 40.5441 47.159C39.5093 47.6674 39.0735 47.7309 36.1959 47.7309C33.3999 47.74 33.3363 47.7491 33.0095 48.2393C32.7372 48.6478 32.7826 49.0381 33.1457 49.4376L33.4544 49.7734H36.3048C39.6273 49.7734 40.0176 49.7099 41.461 48.9927C42.1055 48.6659 42.5413 48.3755 43.0496 47.8943C44.6473 46.3965 45.2828 45.0257 45.5006 42.611C45.6277 41.1223 45.8002 40.4959 46.2904 39.6698C46.9349 38.6077 48.2966 37.6364 49.5584 37.3368C50.1394 37.2007 52.4452 37.1462 52.4452 37.2642C52.4452 37.3005 52.1002 37.6727 51.6826 38.1084C50.6931 39.1161 50.5842 39.5337 51.1743 40.1146C51.3831 40.3325 51.5101 40.3779 51.8642 40.3779H52.2999L54.1881 38.4897L56.0763 36.6015V36.1567V35.7119L54.1881 33.8237L52.2999 31.9355H51.8642C51.5101 31.9355 51.3831 31.9809 51.1743 32.1988Z" fill="#444444"/>
<path d="M33.4086 35.1941C32.8821 35.5209 32.7005 36.1291 32.9728 36.6556C33.2361 37.164 33.3632 37.1821 36.4224 37.2184C39.1821 37.2547 39.2547 37.2638 39.9628 37.4998C40.4348 37.6542 40.9522 37.9174 41.4152 38.2442C42.323 38.8706 42.677 38.9069 43.1491 38.4349C43.4032 38.1807 43.4577 38.0536 43.4577 37.754C43.4577 37.173 43.258 36.8916 42.441 36.347C41.5695 35.7751 41.0521 35.53 40.0989 35.2667C39.4907 35.1033 39.1004 35.0761 36.5586 35.0488C33.8171 35.0125 33.69 35.0216 33.4086 35.1941Z" fill="#444444"/>
<path d="M51.1647 44.8179C50.9468 45.0449 50.9015 45.1629 50.9015 45.526C50.9015 45.9617 50.9196 45.9799 51.6731 46.7333C52.0997 47.16 52.4447 47.5503 52.4447 47.6139C52.4447 47.7773 50.5837 47.7682 49.7758 47.5957C49.0496 47.4414 48.2326 47.0783 47.5517 46.6062C46.9072 46.1705 46.5441 46.1705 46.1265 46.5881C45.8723 46.8423 45.8179 46.9603 45.8179 47.3052C45.8179 47.5957 45.8723 47.7682 46.0267 47.9225C46.5078 48.449 47.7061 49.1208 48.7682 49.4567C49.2947 49.6292 49.6759 49.6745 50.9287 49.7109C51.9182 49.7381 52.4447 49.7835 52.4447 49.847C52.4447 49.9015 52.0997 50.3009 51.6731 50.7367C50.9287 51.4992 50.9015 51.5355 50.9015 51.944C50.9015 52.298 50.9468 52.4251 51.1647 52.643C51.3826 52.8609 51.5097 52.9062 51.8637 52.9062H52.2994L54.1876 51.0181L56.0758 49.1299V48.7305V48.331L54.1876 46.4428L52.2994 44.5547H51.8637C51.5097 44.5547 51.3826 44.6 51.1647 44.8179Z" fill="#444444"/>
<path d="M29.1295 46.625H15.8015C15.2024 46.625 14.689 46.1372 14.689 45.5661C14.689 44.9959 15.2024 44.5081 15.8015 44.5081H29.1295C29.7286 44.5081 30.242 44.9959 30.242 45.5661C30.242 46.1372 29.7286 46.625 29.1295 46.625Z" fill="#444444"/>
<path d="M45.7954 30.8234L45.7954 17.4953C45.7954 16.8962 46.2832 16.3828 46.8543 16.3828C47.4245 16.3828 47.9124 16.8962 47.9124 17.4953L47.9124 30.8234C47.9124 31.4225 47.4245 31.9359 46.8543 31.9359C46.2832 31.9359 45.7954 31.4225 45.7954 30.8234Z" fill="#444444"/>
<path d="M46.266 16.0525L45.7952 16.9369V28.5152H47.9169V18.5148L57.2637 22.3175L58.2141 22.2384L58.7284 21.4544L60 10.3462L59.5304 9.34473L48.5405 1.96116L48.1835 1.80839L37.735 0.000686646L36.4934 0.727791L35.7092 2.3961C34.51 4.25621 32.4095 5.36692 30.096 5.36692C27.7914 5.36692 25.6998 4.25621 24.4884 2.3961L23.7042 0.727791L22.4626 0.000686646L11.8299 1.80839L11.4685 1.96116L0.470738 9.34473L0 10.3462L1.27727 21.4544L1.78702 22.2384L2.73184 22.3175L12.0787 18.5148V45.5578L13.1372 46.625H25.0577V45.5617V44.4984H14.2048V16.9369L13.7352 16.0525L12.7458 15.9577L3.22491 19.8207L2.19199 10.7521L12.4836 3.83356L22.0264 2.27453L22.7102 3.55139C24.3054 6.01258 27.0674 7.48016 30.096 7.48016C33.1246 7.48016 35.8955 6.01258 37.4951 3.55139L38.1789 2.27453L47.5164 3.83356L57.8214 10.7521L56.7763 19.8207L47.2554 15.9577L46.266 16.0525Z" fill="#444444"/>
<path d="M13.1553 17.9551L12.0967 16.9001V11.2596L13.1553 10.2013L14.2228 11.2596V16.9001L13.1553 17.9551Z" fill="#444444"/>
<path d="M46.863 17.9551L45.7954 16.9001V11.2596L46.863 10.2013L47.9171 11.2596V16.9001L46.863 17.9551Z" fill="#444444"/>
<path d="M23.8747 39.748H13.2795C12.6425 39.748 12.0967 39.2602 12.0967 38.6892C12.0967 38.119 12.6425 37.6311 13.2795 37.6311H23.8747C24.5117 37.6311 25.0576 38.119 25.0576 38.6892C25.0576 39.2602 24.5117 39.748 23.8747 39.748Z" fill="#444444"/>
</svg>
