<svg width="18" height="18" viewBox="0 0 18 18" fill="none" xmlns="http://www.w3.org/2000/svg">
<path d="M17.1511 17.1497H0.848776V6.06252H17.1511V17.1497ZM0.849497 2.61457H3.35346V3.95375C3.35346 4.18854 3.54347 4.37904 3.77785 4.37904H5.92096C6.15534 4.37904 6.34535 4.18854 6.34535 3.95375V2.61457H11.6548V3.95375C11.6548 4.18854 11.8448 4.37904 12.0792 4.37904H14.2226C14.457 4.37904 14.647 4.18854 14.647 3.95375V2.61457H17.1509V5.21226H0.849497V2.61457ZM4.20224 0.850262H5.49658V3.52862H4.20224V0.850262ZM12.5036 0.850262H13.7982V3.52862H12.5036V0.850262ZM17.9997 2.18958C17.9997 1.95479 17.8097 1.76431 17.5753 1.76431H14.647V0.425131C14.647 0.190485 14.457 0 14.2226 0H12.0792C11.8448 0 11.6548 0.190485 11.6548 0.425131V1.76431H6.34535V0.425131C6.34535 0.190485 6.15534 0 5.92096 0H3.77785C3.54347 0 3.35346 0.190485 3.35346 0.425131V1.76431H0.425107C0.190729 1.76431 0.00072098 1.95479 0.00072098 2.18958L0 17.5747C0 17.8095 0.190156 18 0.424534 18H17.5755C17.8099 18 18 17.8095 18 17.5747L17.9997 2.18958Z" fill="#666666"/>
<path d="M3.28151 13.0316H4.96831V14.7185H3.28151V13.0316ZM2.76576 15.75H5.48424C5.76908 15.75 6 15.5191 6 15.2343V12.5157C6 12.2309 5.76908 12 5.48424 12H2.76576C2.48092 12 2.25 12.2309 2.25 12.5157V15.2343C2.25 15.5191 2.48092 15.75 2.76576 15.75Z" fill="#666666"/>
<path d="M8.32521 8.32521H9.67465V9.67466H8.32521V8.32521ZM7.9126 10.5H10.0874C10.3153 10.5 10.5 10.3153 10.5 10.0874V7.9126C10.5 7.68473 10.3153 7.5 10.0874 7.5H7.9126C7.68473 7.5 7.5 7.68473 7.5 7.9126V10.0874C7.5 10.3153 7.68473 10.5 7.9126 10.5Z" fill="#666666"/>
<path d="M8.32521 13.0316H9.67465V14.7185H8.32521V13.0316ZM7.9126 15.75H10.0874C10.3153 15.75 10.5 15.5191 10.5 15.2343V12.5157C10.5 12.2309 10.3153 12 10.0874 12H7.9126C7.68473 12 7.5 12.2309 7.5 12.5157V15.2343C7.5 15.5191 7.68473 15.75 7.9126 15.75Z" fill="#666666"/>
<path d="M13.0315 8.32521H14.7185V9.67466H13.0315V8.32521ZM12.5159 10.5H15.2342C15.5191 10.5 15.75 10.3153 15.75 10.0874V7.9126C15.75 7.68473 15.5191 7.5 15.2342 7.5H12.5159C12.2311 7.5 12 7.68473 12 7.9126V10.0874C12 10.3153 12.2311 10.5 12.5159 10.5Z" fill="#666666"/>
<path d="M13.0315 13.0316H14.7185V14.7185H13.0315V13.0316ZM12.5159 15.75H15.2342C15.5191 15.75 15.75 15.5191 15.75 15.2343V12.5157C15.75 12.2309 15.5191 12 15.2342 12H12.5159C12.2311 12 12 12.2309 12 12.5157V15.2343C12 15.5191 12.2311 15.75 12.5159 15.75Z" fill="#666666"/>
</svg>
