<svg width="60" height="47" viewBox="0 0 60 47" fill="none" xmlns="http://www.w3.org/2000/svg">
<path d="M14.2048 44.4984H45.7952V16.9369L46.266 16.0525L47.2554 15.9577L56.7763 19.8207L57.8214 10.7521L47.5164 3.83356L38.1789 2.27453L37.4951 3.55139C35.8955 6.01258 33.1246 7.48016 30.096 7.48016C27.0674 7.48016 24.3054 6.01258 22.7102 3.55139L22.0264 2.27453L12.4836 3.83356L2.19199 10.7521L3.22491 19.8207L12.7458 15.9577L13.7352 16.0525L14.2048 16.9369V44.4984ZM46.8628 46.625H13.1372L12.0787 45.5578V18.5148L2.73184 22.3175L1.78702 22.2384L1.27727 21.4544L0 10.3462L0.470738 9.34473L11.4685 1.96116L11.8299 1.80839L22.4626 0.000686646L23.7042 0.727791L24.4884 2.3961C25.6998 4.25621 27.7914 5.36692 30.096 5.36692C32.4095 5.36692 34.51 4.25621 35.7092 2.3961L36.4934 0.727791L37.735 0.000686646L48.1835 1.80839L48.5405 1.96116L59.5304 9.34473L60 10.3462L58.7284 21.4544L58.2141 22.2384L57.2637 22.3175L47.9169 18.5148V45.5578L46.8628 46.625Z" fill="#444444"/>
<path d="M13.1553 17.9902L12.0967 16.9353V11.2947L13.1553 10.2364L14.2228 11.2947V16.9353L13.1553 17.9902Z" fill="#444444"/>
<path d="M46.863 17.9902L45.7954 16.9353V11.2947L46.863 10.2364L47.9171 11.2947V16.9353L46.863 17.9902Z" fill="#444444"/>
<path d="M23.8747 39.748H13.2795C12.6425 39.748 12.0967 39.2602 12.0967 38.6892C12.0967 38.119 12.6425 37.6311 13.2795 37.6311H23.8747C24.5117 37.6311 25.0576 38.119 25.0576 38.6892C25.0576 39.2602 24.5117 39.748 23.8747 39.748Z" fill="#444444"/>
<path d="M43.6365 8.30027L43.0063 6.83428L45.0311 2.62326L46.5 2L47.1268 3.46464L45.102 7.67566L43.6365 8.30027Z" fill="#444444"/>
<path d="M39.8416 17.7547L39.2137 16.2831L41.1093 11.5616L42.5805 10.9327L43.205 12.4029L41.3094 17.1244L39.8416 17.7547ZM36.0486 27.2023L35.4207 25.7307L37.3163 21.0091L38.7857 20.3848L39.412 21.8505L37.5164 26.5721L36.0486 27.2023ZM32.2556 36.6499L31.6255 35.1839L33.5233 30.4567L34.9922 29.8335L35.619 31.2981L33.7211 36.0253L32.2556 36.6499Z" fill="#444444"/>
<path d="M28.2624 46.1264L27.6309 44.6638L29.7308 39.9015L31.2002 39.2771L31.8265 40.7429L29.7266 45.5052L28.2624 46.1264Z" fill="#444444"/>
</svg>
