<svg width="24" height="22" viewBox="0 0 24 22" fill="none" xmlns="http://www.w3.org/2000/svg">
<path d="M22.1574 21.4514H0.925196C0.641624 21.4514 0.377199 21.3373 0.19977 21.1386C0.0455761 20.9662 -0.022644 20.7476 0.00663376 20.5229C0.233686 18.7802 0.853197 17.1699 1.76966 15.7727C3.72139 12.7972 7.98269 14.0208 11.5412 14.0208C15.0998 14.0208 19.3612 12.7969 21.313 15.7725C22.2295 17.1698 22.8491 18.7801 23.0759 20.5229C23.1052 20.7476 23.0365 20.9667 22.8828 21.1386C22.7053 21.3373 22.4409 21.4514 22.1574 21.4514Z" fill="white"/>
<path d="M16.3264 10.9926C16.2025 11.1206 16.0732 11.2426 15.9392 11.3606C14.7694 12.3916 13.2311 13.0241 11.5422 13.0241C9.85319 13.0241 8.31488 12.3911 7.14509 11.3606C7.01116 11.2426 6.88169 11.1205 6.75788 10.9926C6.63455 10.8646 6.51419 10.7337 6.40098 10.5962C5.48446 9.47804 4.93247 8.05814 4.93247 6.51215C4.93247 2.92111 7.89793 0 11.5423 0C15.1866 0 18.1519 2.92157 18.1519 6.51206C18.1519 8.05805 17.5999 9.47804 16.6833 10.5961C16.5706 10.7337 16.4503 10.8641 16.3264 10.9926Z" fill="white"/>
</svg>
