<svg width="60" height="55" viewBox="0 0 60 55" fill="none" xmlns="http://www.w3.org/2000/svg">
<path d="M39.3745 50.625H6.56241C2.94531 50.625 0 47.6813 0 44.0629V4.68939C0 4.17148 0.42028 3.75185 0.936536 3.75185H9.37535C9.89161 3.75185 10.3119 4.17148 10.3119 4.68939C10.3119 5.20731 9.89161 5.62693 9.37535 5.62693H1.87637V44.0629C1.87637 46.6478 3.97782 48.7499 6.56241 48.7499H39.3745C39.8908 48.7499 40.311 49.1696 40.311 49.6875C40.311 50.2054 39.8908 50.625 39.3745 50.625Z" fill="#444444"/>
<path d="M55.3119 34.6855C54.7941 34.6855 54.375 34.2661 54.375 33.7482V5.62421H46.8759C46.3546 5.62421 45.9355 5.20479 45.9355 4.68691C45.9355 4.16903 46.3546 3.74927 46.8759 3.74927H55.3119C55.8298 3.74927 56.2489 4.16903 56.2489 4.68691V33.7482C56.2489 34.2661 55.8298 34.6855 55.3119 34.6855Z" fill="#444444"/>
<path d="M41.2508 5.625H30.9375V3.75032H41.2508V5.625Z" fill="#444444"/>
<path d="M25.3135 5.625H15.002V3.74993H25.3135V5.625Z" fill="#444444"/>
<path d="M55.3128 13.125H0.938477V11.2502H55.3128V13.125Z" fill="#444444"/>
<path d="M28.1265 1.87534C27.0938 1.87534 26.2501 2.71679 26.2501 3.75009V6.56237C26.2501 7.59601 27.0938 8.43743 28.1265 8.43743C29.1591 8.43743 29.9996 7.59601 29.9996 6.56237V3.75009C29.9996 2.71679 29.1591 1.87534 28.1265 1.87534ZM28.1265 10.3125C26.0579 10.3125 24.377 8.62964 24.377 6.56237V3.75009C24.377 1.68315 26.0579 0.00026989 28.1265 0.00026989C30.1918 0.00026989 31.8759 1.68315 31.8759 3.75009V6.56237C31.8759 8.62964 30.1918 10.3125 28.1265 10.3125Z" fill="#444444"/>
<path d="M12.187 1.87547C11.1537 1.87547 10.3132 2.71694 10.3132 3.75019V6.56274C10.3132 7.59631 11.1537 8.43746 12.187 8.43746C13.2202 8.43746 14.0639 7.59631 14.0639 6.56274V3.75019C14.0639 2.71694 13.2202 1.87547 12.187 1.87547ZM12.187 10.3125C10.1205 10.3125 8.43945 8.62989 8.43945 6.56274V3.75019C8.43945 1.68336 10.1205 0.00044632 12.187 0.00044632C14.2535 0.00044632 15.9377 1.68336 15.9377 3.75019V6.56274C15.9377 8.62989 14.2535 10.3125 12.187 10.3125Z" fill="#444444"/>
<path d="M44.0585 1.8771C43.025 1.8771 42.1862 2.71862 42.1862 3.75207V6.56451C42.1862 7.59796 43.025 8.43949 44.0585 8.43949C45.0919 8.43949 45.9341 7.59796 45.9341 6.56451V3.75207C45.9341 2.71862 45.0919 1.8771 44.0585 1.8771ZM44.0585 10.3145C41.9916 10.3145 40.3105 8.63174 40.3105 6.56451V3.75207C40.3105 1.68517 41.9916 0.00246906 44.0585 0.00246906C46.1254 0.00246906 47.8097 1.68517 47.8097 3.75207V6.56451C47.8097 8.63174 46.1254 10.3145 44.0585 10.3145Z" fill="#444444"/>
<path d="M20.6249 23.4376H24.3733V19.6876H20.6249V23.4376ZM25.3112 25.3125H19.687C19.168 25.3125 18.749 24.8929 18.749 24.3749V18.7503C18.749 18.2324 19.168 17.8127 19.687 17.8127H25.3112C25.8301 17.8127 26.2491 18.2324 26.2491 18.7503V24.3749C26.2491 24.8929 25.8301 25.3125 25.3112 25.3125Z" fill="#444444"/>
<path d="M31.8732 23.4373H35.6229V19.6876H31.8732V23.4373ZM36.5611 25.3125H30.9382C30.4181 25.3125 30 24.8928 30 24.3749V18.7501C30 18.2322 30.4181 17.8128 30.9382 17.8128H36.5611C37.0813 17.8128 37.4994 18.2322 37.4994 18.7501V24.3749C37.4994 24.8928 37.0813 25.3125 36.5611 25.3125Z" fill="#444444"/>
<path d="M43.1265 23.4354H46.8741V19.6857H43.1265V23.4354ZM47.8118 25.3105H42.1887C41.6677 25.3105 41.251 24.8911 41.251 24.3731V18.7483C41.251 18.2304 41.6677 17.8109 42.1887 17.8109H47.8118C48.3294 17.8109 48.7496 18.2304 48.7496 18.7483V24.3731C48.7496 24.8911 48.3294 25.3105 47.8118 25.3105Z" fill="#444444"/>
<path d="M9.37863 32.8104H13.1288V29.0606H9.37863V32.8104ZM14.0656 34.6855H8.43872C7.92145 34.6855 7.50195 34.266 7.50195 33.7482V28.1232C7.50195 27.6053 7.92145 27.1858 8.43872 27.1858H14.0656C14.5828 27.1858 15.0023 27.6053 15.0023 28.1232V33.7482C15.0023 34.266 14.5828 34.6855 14.0656 34.6855Z" fill="#444444"/>
<path d="M20.6249 32.8107H24.3733V29.0606H20.6249V32.8107ZM25.3112 34.6855H19.687C19.168 34.6855 18.749 34.2659 18.749 33.748V28.1234C18.749 27.6054 19.168 27.1858 19.687 27.1858H25.3112C25.8301 27.1858 26.2491 27.6054 26.2491 28.1234V33.748C26.2491 34.2659 25.8301 34.6855 25.3112 34.6855Z" fill="#444444"/>
<path d="M31.8732 32.8107H35.6229V29.0607H31.8732V32.8107ZM36.5611 34.6855H30.9382C30.4181 34.6855 30 34.2661 30 33.748V28.1231C30 27.6053 30.4181 27.1858 30.9382 27.1858H36.5611C37.0813 27.1858 37.4994 27.6053 37.4994 28.1231V33.748C37.4994 34.2661 37.0813 34.6855 36.5611 34.6855Z" fill="#444444"/>
<path d="M47.8118 33.75C47.2942 33.75 46.8741 33.3305 46.8741 32.8126V29.0626H43.1265V31.8752C43.1265 32.3931 42.7063 32.8126 42.1887 32.8126C41.6677 32.8126 41.251 32.3931 41.251 31.8752V28.1252C41.251 27.6072 41.6677 27.1878 42.1887 27.1878H47.8118C48.3294 27.1878 48.7496 27.6072 48.7496 28.1252V32.8126C48.7496 33.3305 48.3294 33.75 47.8118 33.75Z" fill="#444444"/>
<path d="M9.37863 42.1858H13.1288V38.4359H9.37863V42.1858ZM14.0656 44.0605H8.43872C7.92145 44.0605 7.50195 43.6411 7.50195 43.1232V37.4985C7.50195 36.9806 7.92145 36.5608 8.43872 36.5608H14.0656C14.5828 36.5608 15.0023 36.9806 15.0023 37.4985V43.1232C15.0023 43.6411 14.5828 44.0605 14.0656 44.0605Z" fill="#444444"/>
<path d="M20.6249 42.1857H24.3733V38.4356H20.6249V42.1857ZM25.3112 44.0605H19.687C19.168 44.0605 18.749 43.6409 18.749 43.1229V37.4984C18.749 36.9804 19.168 36.5608 19.687 36.5608H25.3112C25.8301 36.5608 26.2491 36.9804 26.2491 37.4984V43.1229C26.2491 43.6409 25.8301 44.0605 25.3112 44.0605Z" fill="#444444"/>
<path d="M31.8732 42.1876H35.6229V38.4376H31.8732V42.1876ZM36.5611 44.0625H30.9382C30.4181 44.0625 30 43.6431 30 43.1249V37.5004C30 36.9822 30.4181 36.5628 30.9382 36.5628H36.5611C37.0813 36.5628 37.4994 36.9822 37.4994 37.5004V43.1249C37.4994 43.6431 37.0813 44.0625 36.5611 44.0625Z" fill="#444444"/>
<path d="M59.0636 44.0605C58.5456 44.0605 58.1237 43.641 58.1237 43.1231C58.1237 40.5402 56.0245 38.4355 53.4382 38.4355H41.2509C40.733 38.4355 40.3145 38.016 40.3145 37.498C40.3145 36.9804 40.733 36.5606 41.2509 36.5606H53.4382C57.0569 36.5606 60 39.5043 60 43.1231C60 43.641 59.5815 44.0605 59.0636 44.0605Z" fill="#444444"/>
<path d="M44.9992 42.1855C44.7617 42.1855 44.5209 42.0942 44.337 41.9116L40.5879 38.1615C40.2233 37.796 40.2233 37.203 40.5879 36.8351L44.337 33.0854C44.7015 32.7195 45.2968 32.7195 45.6647 33.0854C46.0292 33.4533 46.0292 34.0462 45.6647 34.4118L42.5778 37.4983L45.6647 40.5849C46.0292 40.9528 46.0292 41.5458 45.6647 41.9116C45.4807 42.0942 45.24 42.1855 44.9992 42.1855Z" fill="#444444"/>
<path d="M59.0636 50.623H46.8763C43.2575 50.623 40.3145 47.6793 40.3145 44.0609C40.3145 43.5429 40.733 43.1234 41.2509 43.1234C41.7689 43.1234 42.1873 43.5429 42.1873 44.0609C42.1873 46.6458 44.29 48.7481 46.8763 48.7481H59.0636C59.5815 48.7481 60 49.1676 60 49.6856C60 50.2035 59.5815 50.623 59.0636 50.623Z" fill="#444444"/>
<path d="M55.3124 54.373C55.0723 54.373 54.8321 54.2814 54.6503 54.0986C54.2832 53.7329 54.2832 53.1401 54.6503 52.7723L57.7345 49.6857L54.6503 46.5991C54.2832 46.2334 54.2832 45.6406 54.6503 45.2724C55.014 44.9067 55.6109 44.9067 55.9745 45.2724L59.7243 49.0222C60.0914 49.3903 60.0914 49.9831 59.7243 50.3488L55.9745 54.0986C55.7927 54.2814 55.5526 54.373 55.3124 54.373Z" fill="#444444"/>
</svg>
