<svg width="116" height="115" viewBox="0 0 116 115" fill="none" xmlns="http://www.w3.org/2000/svg">
<path d="M26.5009 84C25.1535 84 24 85.1205 24 86.4277V112.572C24 113.88 25.1535 115 26.5009 115C27.8464 115 29 113.88 29 112.572V86.4277C29 85.1205 27.8464 84 26.5009 84Z" fill="white"/>
<path d="M24 53H29V58H24V53Z" fill="white"/>
<path d="M103.999 4.875C107.938 4.875 111.124 8.0625 111.124 12C111.124 15.9375 107.938 19.125 103.999 19.125C100.062 19.125 96.8745 15.9375 96.8745 12C96.8745 8.0625 100.062 4.875 103.999 4.875ZM103.999 24C110.562 24 116 18.5625 116 12C116 5.4375 110.562 0 103.999 0C97.4379 0 92 5.4375 92 12C92 18.5625 97.4379 24 103.999 24Z" fill="white"/>
<path d="M103.999 64.9219C100.062 64.9219 96.8745 61.6016 96.8745 57.5C96.8745 53.3984 100.062 50.0781 103.999 50.0781C107.938 50.0781 111.124 53.3984 111.124 57.5C111.124 61.6016 107.938 64.9219 103.999 64.9219ZM103.999 45C97.4379 45 92 50.6641 92 57.5C92 64.3359 97.4379 70 103.999 70C110.562 70 116 64.3359 116 57.5C116 50.6641 110.562 45 103.999 45Z" fill="white"/>
<path d="M103.999 110.125C100.062 110.125 96.8745 106.938 96.8745 103C96.8745 99.0625 100.062 95.875 103.999 95.875C107.938 95.875 111.124 99.0625 111.124 103C111.124 106.938 107.938 110.125 103.999 110.125ZM103.999 91C97.4379 91 92 96.4375 92 103C92 109.562 97.4379 115 103.999 115C110.562 115 116 109.562 116 103C116 96.4375 110.562 91 103.999 91Z" fill="white"/>
<path d="M14.5169 16.7239C14.5169 10.1471 20.0552 4.69771 26.7415 4.69771C33.426 4.69771 38.9661 10.1471 38.9661 16.7239C38.9661 23.3007 33.426 28.75 26.7415 28.75C19.8645 28.75 14.5169 23.3007 14.5169 16.7239ZM82.517 14.469C83.8539 14.469 85 13.3415 85 12.0261C85 10.7108 83.8539 9.58333 82.517 9.58333H65.517C64.1801 9.58333 63.0339 10.7108 63.0339 12.0261V55.0572H53.4831V53.9297C53.4831 43.4069 45.0784 34.7631 33.8074 31.9444C39.5402 29.3137 43.7415 23.4886 43.7415 16.7239C43.7415 7.51633 36.0997 0 26.7415 0C17.3814 0 9.73964 7.51633 9.73964 16.7239C9.73964 23.4886 13.7522 29.3137 19.6738 31.9444C8.40275 34.5752 0 43.4069 0 53.9297V74.2239C0 75.5392 1.14616 76.6667 2.48304 76.6667H12.2246V112.557C12.2246 113.873 13.3707 115 14.7076 115C16.0445 115 17.1907 113.873 17.1907 112.557V67.0833C17.1907 65.768 16.0445 64.6405 14.7076 64.6405C13.3707 64.6405 12.2246 65.768 12.2246 67.0833V71.781H4.96611V53.7418C4.96611 43.7827 14.7076 35.7026 26.9322 35.7026C38.9661 35.7026 48.8984 43.7827 48.8984 53.7418V71.781H41.6399V67.0833C41.6399 65.768 40.4937 64.6405 39.1568 64.6405C37.8199 64.6405 36.6738 65.768 36.6738 67.0833V112.557C36.6738 113.873 37.8199 115 39.1568 115C40.4937 115 41.6399 113.873 41.6399 112.557V76.6667H51.3814C52.7183 76.6667 53.8664 75.5392 53.8664 74.2239V59.9428H63.0339V102.974C63.0339 104.289 64.1801 105.417 65.517 105.417H82.517C83.8539 105.417 85 104.289 85 102.974C85 101.658 83.8539 100.531 82.517 100.531H68V59.9428H82.517C83.8539 59.9428 85 58.8154 85 57.5C85 56.1846 83.8539 55.0572 82.517 55.0572H68V14.469H82.517Z" fill="white"/>
</svg>
