<svg width="150" height="144" viewBox="0 0 150 144" fill="none" xmlns="http://www.w3.org/2000/svg">
<path d="M126.399 57L123.818 54.6274V17.7533H91.5777L89 15.3726L91.5777 13H126.399L129 15.3726V54.6274L126.399 57Z" fill="white"/>
<path d="M89.7715 139.884H135.416V102.828C135.416 101.675 136.411 100.687 137.573 100.687H145.873V91.7939L125.623 84.7127C122.968 89.4874 117.988 92.4522 112.511 92.4522C107.034 92.4522 102.054 89.4874 99.5649 84.7127L79.3164 91.7939V100.687H87.615C88.7756 100.687 89.7715 101.675 89.7715 102.828V139.884ZM137.407 144H87.615C86.4528 144 85.4568 143.013 85.4568 141.858V104.805H77.1582C75.996 104.805 75 103.816 75 102.663V90.3106C75 89.4874 75.4988 88.6641 76.3285 88.3341L99.8974 80.0997C101.058 79.7714 102.22 80.2647 102.553 81.418C104.046 85.536 107.864 88.3341 112.345 88.3341C116.827 88.3341 120.643 85.536 122.138 81.418C122.469 80.2647 123.631 79.7714 124.793 80.0997L148.362 88.3341C149.192 88.6641 149.689 89.3224 149.689 90.3106V102.663C149.689 103.816 148.693 104.805 147.531 104.805H139.232V141.858C139.565 143.013 138.569 144 137.407 144Z" fill="white"/>
<path d="M137.407 104.804C136.744 104.804 136.08 104.474 135.748 103.981C133.591 101.181 130.77 93.935 135.748 87.1822C136.411 86.1939 137.74 86.029 138.569 86.6873C139.565 87.3455 139.732 88.6638 139.068 89.4871C134.752 95.4166 138.902 101.181 139.068 101.509C139.732 102.498 139.565 103.651 138.569 104.309C138.237 104.639 137.906 104.804 137.407 104.804Z" fill="white"/>
<path d="M87.6154 104.804C87.1166 104.804 86.7857 104.639 86.4532 104.474C85.4572 103.816 85.291 102.498 85.956 101.674C86.1223 101.344 90.2708 95.7465 85.956 89.652C85.291 88.6637 85.4572 87.5105 86.4532 86.8522C87.4492 86.1939 88.6114 86.3573 89.2748 87.3455C94.2546 94.0984 91.433 101.345 89.2748 104.146C88.9439 104.474 88.2789 104.804 87.6154 104.804Z" fill="white"/>
<path d="M120.809 135.765H87.615C86.4528 135.765 85.4568 134.778 85.4568 133.623C85.4568 132.47 86.4528 131.483 87.615 131.483H120.809C121.972 131.483 122.968 132.47 122.968 133.623C122.968 134.778 121.972 135.765 120.809 135.765Z" fill="white"/>
<path d="M14.7715 59.8836H60.4163V22.828C60.4163 21.6748 61.4106 20.6865 62.5729 20.6865H70.8731V11.7939L50.6229 4.71268C47.9676 9.48736 42.9878 12.4522 37.5108 12.4522C32.0338 12.4522 27.054 9.48736 24.5649 4.71268L4.31639 11.7939V20.6865H12.615C13.7756 20.6865 14.7715 21.6748 14.7715 22.828V59.8836ZM62.4066 64H12.615C11.4528 64 10.4568 63.0134 10.4568 61.8585V24.8045H2.15821C0.995981 24.8045 0 23.8163 0 22.6631V10.3106C0 9.48736 0.498816 8.66411 1.32851 8.33414L24.8974 0.0997314C26.058 -0.2286 27.2203 0.264725 27.5528 1.41796C29.0459 5.53597 32.8635 8.33414 37.3445 8.33414C41.8272 8.33414 45.6431 5.53597 47.1379 1.41796C47.4688 0.264725 48.631 -0.2286 49.7932 0.0997314L73.3622 8.33414C74.1919 8.66411 74.689 9.32238 74.689 10.3106V22.6631C74.689 23.8163 73.6931 24.8045 72.5309 24.8045H64.2322V61.8585C64.5648 63.0134 63.5688 64 62.4066 64Z" fill="white"/>
<path d="M62.4071 24.8042C61.7437 24.8042 61.0803 24.4743 60.7477 23.981C58.5912 21.1812 55.7696 13.935 60.7477 7.1822C61.4112 6.19394 62.7397 6.02896 63.5694 6.68725C64.5653 7.34554 64.7316 8.66379 64.0682 9.48706C59.7518 15.4166 63.9019 21.1811 64.0682 21.5095C64.7316 22.4977 64.5653 23.651 63.5694 24.3093C63.2368 24.6393 62.9059 24.8042 62.4071 24.8042Z" fill="white"/>
<path d="M12.6154 24.8042C12.1166 24.8042 11.7857 24.6393 11.4532 24.4743C10.4572 23.816 10.291 22.4977 10.956 21.6745C11.1223 21.3445 15.2708 15.7465 10.956 9.652C10.291 8.66375 10.4572 7.51052 11.4532 6.85223C12.4492 6.19394 13.6114 6.35729 14.2748 7.34554C19.2546 14.0984 16.433 21.3445 14.2748 24.1459C13.9439 24.4743 13.2789 24.8042 12.6154 24.8042Z" fill="white"/>
<path d="M45.8094 55.7646H12.615C11.4528 55.7646 10.4568 54.778 10.4568 53.6232C10.4568 52.4699 11.4528 51.4833 12.615 51.4833H45.8094C46.9716 51.4833 47.9676 52.4699 47.9676 53.6232C47.9676 54.778 46.9716 55.7646 45.8094 55.7646Z" fill="white"/>
<path d="M126.49 57L124.988 56.5485L117.543 51.574L117 48.3242L120.578 47.8333L126.49 51.7893L132.41 47.8333L136 48.3242L135.446 51.574L128.023 56.5485L126.49 57Z" fill="white"/>
<path d="M61.4197 132H26.6037L24 129.631V90.3839L26.6037 88.0005L29.1812 90.3839V127.258H61.4197L64 129.631L61.4197 132Z" fill="white"/>
<path d="M19.0652 98.0835L17 97.0456L17.5517 93.4784L24.9865 88.0002H28.0107L35.457 93.4784L36 97.0456L32.4328 97.5979L26.5115 93.2413L20.5874 97.5979L19.0652 98.0835Z" fill="white"/>
</svg>
