<svg width="28" height="39" viewBox="0 0 28 39" fill="none" xmlns="http://www.w3.org/2000/svg">
<path d="M4.19986 29.2118C4.19986 23.8588 8.71096 19.4235 14.1556 19.4235C19.6001 19.4235 24.1112 23.8588 24.1112 29.2118V35.0235H4.19986V29.2118ZM8.08879 9.78823C8.08879 6.57647 10.7335 3.97647 14 3.97647C17.2665 3.97647 19.9106 6.57647 19.9106 9.78823C19.9106 13 17.2665 15.6 14 15.6C10.7335 15.6 8.08879 13 8.08879 9.78823ZM2.17805 39H25.9776C27.0666 39 28 38.0824 28 37.0118V29.2118C28 24.0118 25.044 19.4235 20.5329 17.1294C22.7103 15.2941 23.9556 12.6941 23.9556 9.78823C23.9556 4.4353 19.4445 0 14 0C8.55612 0 4.04501 4.4353 4.04501 9.78823C4.04501 12.6941 5.44389 15.4471 7.46647 17.1294C3.11145 19.4235 0 24.0118 0 29.2118V37.0118C0.155619 38.0824 1.08841 39 2.17805 39Z" fill="url(#paint0_linear_167_4559)"/>
<defs>
<linearGradient id="paint0_linear_167_4559" x1="14" y1="39" x2="14" y2="0" gradientUnits="userSpaceOnUse">
<stop stop-color="#00AB8F"/>
<stop offset="1" stop-color="#027BC1"/>
</linearGradient>
</defs>
</svg>
