<svg width="1400" height="756" viewBox="0 0 1400 756" fill="none" xmlns="http://www.w3.org/2000/svg">
<path opacity="0.6" d="M511.809 493.336C577.194 508.235 442.005 532.644 337.366 509.801C212.53 482.552 76.7888 483.687 60.4333 506.961C44.1871 530.095 254.964 529.598 304.989 546.985C350.445 562.788 159.313 574.871 202.171 607.443C256.681 648.887 557.598 643.783 629.556 619.368C790.562 564.748 956.636 601.204 1017.69 612.559C1146.69 636.543 1464.52 607.012 1227.03 568.845C1109.27 549.916 1129.72 530.745 1220.82 519.736C1368.76 501.851 1234.66 472.332 1130 481.417C1102.14 483.832 1079.3 491.631 1025.33 494.186C978.265 496.413 924.319 491.582 917.389 484.063C899.947 465.141 1062.97 451.024 1048.22 434.578C1026.42 410.26 821.447 406.097 806.184 431.076C789.525 458.337 723.654 469.777 618.99 460.692C540.49 453.883 476.391 457.294 452.935 468.928C430.043 480.282 485.64 487.377 511.809 493.336Z" fill="#D9D9D9"/>
<path d="M292.831 647.666H245.439V60.1119H292.831V647.666Z" fill="#BFBFC4"/>
<path d="M1126.81 647.666H1079.43V60.1119H1126.81V647.666Z" fill="#BFBFC4"/>
<path d="M326.989 654.755H211.287V627.894H326.989V654.755Z" fill="#74787F"/>
<path d="M1160.97 654.755H1045.26V627.894H1160.97V654.755Z" fill="#74787F"/>
<path d="M172.007 60.112V188.814H1204.69V60.112H172.007Z" fill="url(#paint0_linear_315_61)"/>
<path d="M169.8 267.272V395.973H1202.48V267.272H169.8Z" fill="url(#paint1_linear_315_61)"/>
<path d="M1045.26 60.112L1080.97 124.484L1116.62 188.814H1195.09L1159.44 124.484L1123.73 60.112H1045.26Z" fill="white"/>
<path d="M1053.89 267.272L1089.16 331.644L1124.43 395.973H1201.87L1166.6 331.644L1131.33 267.272H1053.89Z" fill="white"/>
<path d="M812.93 60.112L852.996 124.484L893.002 188.814H981.103L941.037 124.484L900.97 60.112H812.93Z" fill="white"/>
<path d="M833.632 267.272L870.379 331.644L907.132 395.973H987.89L951.137 331.644L914.324 267.272H833.632Z" fill="white"/>
<path d="M608.291 60.112L646.118 124.484L683.878 188.814H767.051L729.291 124.484L691.47 60.112H608.291Z" fill="white"/>
<path d="M628.108 267.272L662.828 331.644L697.554 395.973H773.906L739.18 331.644L704.46 267.272H628.108Z" fill="white"/>
<path d="M405.66 60.112L440.768 124.484L475.816 188.814H553.066L517.964 124.484L482.855 60.112H405.66Z" fill="white"/>
<path d="M406.46 267.272L443.006 331.644L479.547 395.973H559.849L523.303 331.644L486.702 267.272H406.46Z" fill="white"/>
<path d="M193.686 267.272L230.226 331.644L266.773 395.973H347.07L310.529 331.644L273.922 267.272H193.686Z" fill="white"/>
<path d="M197.721 60.112L231.385 124.484L264.988 188.814H339.009L305.406 124.484L271.742 60.112H197.721Z" fill="white"/>
<path d="M922.237 357.879L720.727 21.2712C712.231 7.11867 697.914 -0.000103554 683.349 -0.000103554C668.875 -0.000103554 654.389 7.11867 645.898 21.2712L444.474 357.879C427.074 386.918 448.03 423.89 481.924 423.89H884.78C918.674 423.89 939.624 386.918 922.237 357.879Z" fill="#FCCA17"/>
<path d="M683.337 33.9069C679.404 33.9069 675.993 35.8368 673.972 39.2111L475.983 370.035C473.937 373.452 473.895 377.555 475.855 381.026C477.822 384.485 481.366 386.555 485.347 386.555H881.326C885.301 386.555 888.851 384.485 890.812 381.026C892.778 377.555 892.729 373.452 890.69 370.035L692.701 39.2111C690.68 35.8368 687.269 33.9069 683.337 33.9069ZM881.326 402.734H485.347C475.461 402.734 466.655 397.6 461.782 389.006C456.902 380.401 457.024 370.211 462.103 361.727L660.093 30.9029C665.033 22.6553 673.717 17.7273 683.337 17.7273C692.95 17.7273 701.64 22.6553 706.58 30.9029L904.57 361.727C909.643 370.211 909.765 380.401 904.885 389.006C900.018 397.6 891.206 402.734 881.326 402.734Z" fill="#1B1B1B"/>
<path d="M681.472 102.418C670.366 103.389 662.343 113.609 662.896 124.745L672.029 280.483C672.327 286.51 677.303 291.243 683.336 291.243C689.368 291.243 694.338 286.51 694.642 280.483L703.818 123.853C704.425 111.533 694.053 101.307 681.472 102.418Z" fill="#1B1B1B"/>
<path d="M703.845 331.643C703.845 342.968 694.663 352.15 683.339 352.15C672.014 352.15 662.826 342.968 662.826 331.643C662.826 320.313 672.014 311.137 683.339 311.137C694.663 311.137 703.845 320.313 703.845 331.643Z" fill="#1B1B1B"/>
<path d="M173.787 673.985C173.787 679.156 134.88 683.349 86.8935 683.349C38.9012 683.349 0 679.156 0 673.985C0 668.82 38.9012 664.627 86.8935 664.627C134.88 664.627 173.787 668.82 173.787 673.985Z" fill="#C4C5C3"/>
<path d="M184 424.636L157.886 414.368L195.222 319.415L221.336 329.683L184 424.636Z" fill="#A6A9A7"/>
<path d="M168.171 352.635L216.703 371.709C285.73 398.364 296.132 417.402 300.587 405.41C306.298 390.019 316.609 355.245 236.518 322.273L187.98 303.198C184.417 301.772 180.369 303.502 178.943 307.064L164.299 343.593C162.873 347.161 164.602 351.203 168.171 352.635Z" fill="#8B8C8B"/>
<path d="M156.119 341.196L164.003 344.352L178.944 307.065L171.061 303.909L156.119 341.196Z" fill="#A6A9A7"/>
<path d="M72.5652 675.461L69.3306 674.193C58.8437 670.084 53.6183 658.135 57.733 647.636L146.908 420.097C151.023 409.604 162.973 404.385 173.466 408.5L176.694 409.768C187.187 413.877 192.407 425.826 188.298 436.319L99.1163 663.858C95.0077 674.357 83.0582 679.576 72.5652 675.461Z" fill="#F79816"/>
<path d="M187.554 444.304L142.026 426.462C135.071 423.731 131.612 415.811 134.337 408.856L135.174 406.708C137.899 399.753 145.825 396.287 152.786 399.018L198.302 416.861C205.263 419.586 208.722 427.506 205.997 434.467L205.154 436.609C202.429 443.564 194.509 447.029 187.554 444.304Z" fill="#D67B19"/>
<path d="M140.724 349.705L138.685 348.904C132.064 346.312 128.768 338.775 131.366 332.16L146.107 294.539C148.705 287.918 156.242 284.629 162.863 287.22L164.902 288.021C171.517 290.613 174.813 298.15 172.221 304.771L157.474 342.392C154.883 349.007 147.345 352.302 140.724 349.705Z" fill="#8B8C8B"/>
<path d="M65.1479 656.174L64.8748 656.065C63.9705 655.713 63.5276 654.694 63.8796 653.789L143.46 450.726C143.812 449.828 144.838 449.379 145.736 449.731L146.015 449.84C146.913 450.192 147.362 451.218 147.01 452.116L67.4237 655.185C67.0717 656.077 66.0521 656.526 65.1479 656.174Z" fill="#D67B19"/>
<path d="M76.6547 660.683L76.3755 660.574C75.4773 660.222 75.0283 659.196 75.3803 658.298L154.967 455.235C155.319 454.337 156.338 453.888 157.243 454.24L157.516 454.349C158.414 454.701 158.863 455.727 158.511 456.625L78.9305 659.688C78.5724 660.586 77.5528 661.029 76.6547 660.683Z" fill="#D67B19"/>
<path d="M88.2826 665.241L88.0035 665.132C87.1053 664.78 86.6622 663.754 87.0142 662.856L166.595 459.793C166.947 458.895 167.972 458.446 168.871 458.798L169.15 458.907C170.048 459.259 170.491 460.285 170.139 461.183L90.5584 664.246C90.2064 665.144 89.1808 665.587 88.2826 665.241Z" fill="#D67B19"/>
<path d="M1400 746.199C1400 751.267 1361.86 755.369 1314.81 755.369C1267.77 755.369 1229.63 751.267 1229.63 746.199C1229.63 741.132 1267.77 737.023 1314.81 737.023C1361.86 737.023 1400 741.132 1400 746.199Z" fill="#C4C5C3"/>
<path d="M1198.28 553.453L1225.27 533.05L1260.98 580.277L1233.98 600.681L1198.28 553.453Z" fill="#5E6163"/>
<path d="M1064.62 359.852L1075.46 351.647C1081.55 347.047 1090.29 348.261 1094.89 354.348L1231.35 534.877C1235.95 540.958 1234.74 549.703 1228.65 554.298L1217.8 562.503C1211.72 567.097 1202.98 565.883 1198.38 559.802L1061.92 379.266C1057.32 373.185 1058.53 364.446 1064.62 359.852Z" fill="#F79816"/>
<path d="M1250.28 543.829L1201.83 580.455C1194.95 585.662 1185.06 584.284 1179.86 577.402L1177.25 573.955C1172.05 567.073 1173.43 557.187 1180.31 551.986L1228.76 515.361C1235.64 510.16 1245.53 511.531 1250.73 518.413L1253.33 521.86C1258.53 528.742 1257.16 538.634 1250.28 543.829Z" fill="#D67B19"/>
<path d="M1165.7 641.688L1319.05 525.779C1319.05 525.779 1365.88 587.724 1378.63 604.601C1391.38 621.466 1385.56 716.456 1358.29 737.078C1331.01 757.693 1239.89 739.827 1223.66 718.361C1207.43 696.896 1165.7 641.688 1165.7 641.688Z" fill="#8B8C8B"/>
<path d="M1186.24 626.164L1165.7 641.688C1165.7 641.688 1207.43 696.896 1223.66 718.361C1239.89 739.827 1331.01 757.693 1358.29 737.078C1373.97 725.225 1382.54 688.812 1384.59 656.775C1318.51 649.923 1252.16 637.5 1186.24 626.164Z" fill="#7D7E7E"/>
<path d="M1089.02 360.089C1089.82 359.476 1090.9 359.518 1091.39 360.174L1209.12 517.29C1209.61 517.951 1209.35 518.995 1208.53 519.608C1207.72 520.221 1206.64 520.178 1206.15 519.523L1088.43 362.401C1087.94 361.745 1088.2 360.702 1089.02 360.089Z" fill="#D67B19"/>
<path d="M1079.4 367.316C1080.21 366.703 1081.28 366.74 1081.78 367.401L1199.5 524.517C1200 525.179 1199.74 526.217 1198.92 526.83C1198.1 527.443 1197.03 527.406 1196.54 526.745L1078.81 369.629C1078.32 368.967 1078.58 367.929 1079.4 367.316Z" fill="#D67B19"/>
<path d="M1069.68 374.622C1070.49 374.009 1071.57 374.046 1072.06 374.701L1189.78 531.823C1190.27 532.479 1190.01 533.523 1189.19 534.136C1188.38 534.748 1187.31 534.712 1186.81 534.05L1069.09 376.929C1068.6 376.273 1068.86 375.229 1069.68 374.622Z" fill="#D67B19"/>
<defs>
<linearGradient id="paint0_linear_315_61" x1="165.123" y1="124.471" x2="1204.69" y2="124.471" gradientUnits="userSpaceOnUse">
<stop stop-color="#00AB8F"/>
<stop offset="1" stop-color="#027BC1"/>
</linearGradient>
<linearGradient id="paint1_linear_315_61" x1="162.915" y1="331.631" x2="1202.48" y2="331.63" gradientUnits="userSpaceOnUse">
<stop stop-color="#027BC1"/>
<stop offset="1" stop-color="#00AB8F"/>
</linearGradient>
</defs>
</svg>
