<svg width="375" height="667" viewBox="0 0 375 667" fill="none" xmlns="http://www.w3.org/2000/svg">
<g clip-path="url(#clip0_68_260)">
<rect width="375" height="667" fill="white"/>
<rect x="-306" y="457.067" width="270.134" height="270.134" rx="30" transform="rotate(-30 -306 457.067)" fill="url(#paint0_linear_68_260)"/>
<rect x="-22.9902" y="414.799" width="6.67985" height="135.378" rx="3.33992" transform="rotate(-30 -22.9902 414.799)" fill="url(#paint1_linear_68_260)"/>
<rect x="-22.8389" y="391.826" width="3.56259" height="60.8622" rx="1.78129" transform="rotate(-30 -22.8389 391.826)" fill="url(#paint2_linear_68_260)"/>
<rect x="17.5337" y="447.436" width="3.56259" height="84.3233" rx="1.78129" transform="rotate(-30 17.5337 447.436)" fill="url(#paint3_linear_68_260)"/>
<rect x="-20.7642" y="435.73" width="3.56259" height="41.658" rx="1.78129" transform="rotate(-30 -20.7642 435.73)" fill="url(#paint4_linear_68_260)"/>
<rect x="294" y="177.69" width="239.381" height="239.381" rx="30" transform="rotate(-30 294 177.69)" fill="url(#paint5_linear_68_260)"/>
<rect x="318.167" y="224.554" width="4.89865" height="99.2793" rx="2.44932" transform="rotate(-30 318.167 224.554)" fill="url(#paint6_linear_68_260)"/>
<rect x="317.514" y="206.429" width="2.61261" height="44.6331" rx="1.30631" transform="rotate(-30 317.514 206.429)" fill="white" fill-opacity="0.2"/>
<rect x="346.742" y="245.128" width="2.61261" height="61.8382" rx="1.30631" transform="rotate(-30 346.742 245.128)" fill="white" fill-opacity="0.2"/>
<rect x="319.8" y="239.903" width="2.61261" height="30.5498" rx="1.30631" transform="rotate(-30 319.8 239.903)" fill="url(#paint7_linear_68_260)"/>
</g>
<defs>
<linearGradient id="paint0_linear_68_260" x1="-83.8432" y1="703.206" x2="-37.7704" y2="730.647" gradientUnits="userSpaceOnUse">
<stop stop-color="#00AB8F"/>
<stop offset="1" stop-color="#027BC1"/>
</linearGradient>
<linearGradient id="paint1_linear_68_260" x1="-21.7791" y1="510.866" x2="-18.6115" y2="413.076" gradientUnits="userSpaceOnUse">
<stop stop-color="#0DBDA0"/>
<stop offset="1" stop-color="#0473B3"/>
</linearGradient>
<linearGradient id="paint2_linear_68_260" x1="-21.0576" y1="391.826" x2="-21.0576" y2="452.688" gradientUnits="userSpaceOnUse">
<stop stop-color="#01AB8F"/>
<stop offset="1" stop-color="#0577B2"/>
</linearGradient>
<linearGradient id="paint3_linear_68_260" x1="19.315" y1="447.436" x2="19.315" y2="531.759" gradientUnits="userSpaceOnUse">
<stop stop-color="#01AB8F"/>
<stop offset="1" stop-color="#0577B2"/>
</linearGradient>
<linearGradient id="paint4_linear_68_260" x1="-19.3813" y1="435.946" x2="-19.3372" y2="473.484" gradientUnits="userSpaceOnUse">
<stop stop-color="#00AB8F"/>
<stop offset="1" stop-color="#027BC1"/>
</linearGradient>
<linearGradient id="paint5_linear_68_260" x1="297.333" y1="183.668" x2="372.982" y2="317.661" gradientUnits="userSpaceOnUse">
<stop stop-color="#00AB8F"/>
<stop offset="1" stop-color="#027BC1"/>
</linearGradient>
<linearGradient id="paint6_linear_68_260" x1="319.853" y1="225.075" x2="323.67" y2="382.54" gradientUnits="userSpaceOnUse">
<stop stop-color="#0DBDA0"/>
<stop offset="1" stop-color="#0473B3"/>
</linearGradient>
<linearGradient id="paint7_linear_68_260" x1="320.814" y1="240.062" x2="320.846" y2="267.59" gradientUnits="userSpaceOnUse">
<stop stop-color="#00AB8F"/>
<stop offset="1" stop-color="#027BC1"/>
</linearGradient>
<clipPath id="clip0_68_260">
<rect width="375" height="667" fill="white"/>
</clipPath>
</defs>
</svg>
