<svg width="1920" height="1080" viewBox="0 0 1920 1080" fill="none" xmlns="http://www.w3.org/2000/svg">
<g clip-path="url(#clip0_1_721)">
<rect width="1920" height="1080" fill="white"/>
<rect x="1368" y="381" width="1466" height="1466" rx="50" transform="rotate(-30 1368 381)" fill="url(#paint0_linear_1_721)"/>
<rect x="1516" y="668" width="30" height="608" rx="15" transform="rotate(-30 1516 668)" fill="url(#paint1_linear_1_721)"/>
<rect x="1512" y="557" width="16" height="273.339" rx="8" transform="rotate(-30 1512 557)" fill="white" fill-opacity="0.2"/>
<rect x="1691" y="794" width="16" height="378.706" rx="8" transform="rotate(-30 1691 794)" fill="white" fill-opacity="0.2"/>
<rect x="1526" y="762" width="16" height="187.091" rx="8" transform="rotate(-30 1526 762)" fill="url(#paint2_linear_1_721)"/>
<rect x="-1504" y="278" width="1466" height="1466" rx="50" transform="rotate(-30 -1504 278)" fill="url(#paint3_linear_1_721)"/>
<rect x="251.209" y="364.543" width="30" height="608" rx="15" transform="rotate(150 251.209 364.543)" fill="url(#paint4_linear_1_721)"/>
<rect x="250.526" y="467.719" width="16" height="273.339" rx="8" transform="rotate(150 250.526 467.719)" fill="white" fill-opacity="0.2"/>
<rect x="69.2095" y="217.969" width="16" height="378.706" rx="8" transform="rotate(150 69.2095 217.969)" fill="white" fill-opacity="0.2"/>
<rect x="241.209" y="270.543" width="16" height="187.091" rx="8" transform="rotate(150 241.209 270.543)" fill="url(#paint5_linear_1_721)"/>
</g>
<defs>
<linearGradient id="paint0_linear_1_721" x1="1388.41" y1="417.607" x2="1851.7" y2="1238.2" gradientUnits="userSpaceOnUse">
<stop stop-color="#00AB8F"/>
<stop offset="1" stop-color="#027BC1"/>
</linearGradient>
<linearGradient id="paint1_linear_1_721" x1="1526.33" y1="671.191" x2="1549.71" y2="1635.53" gradientUnits="userSpaceOnUse">
<stop stop-color="#0DBDA0"/>
<stop offset="1" stop-color="#0473B3"/>
</linearGradient>
<linearGradient id="paint2_linear_1_721" x1="1532.21" y1="762.972" x2="1532.41" y2="931.558" gradientUnits="userSpaceOnUse">
<stop stop-color="#00AB8F"/>
<stop offset="1" stop-color="#027BC1"/>
</linearGradient>
<linearGradient id="paint3_linear_1_721" x1="-298.367" y1="1613.78" x2="-48.333" y2="1762.71" gradientUnits="userSpaceOnUse">
<stop stop-color="#00AB8F"/>
<stop offset="1" stop-color="#027BC1"/>
</linearGradient>
<linearGradient id="paint4_linear_1_721" x1="256.649" y1="795.989" x2="270.875" y2="356.802" gradientUnits="userSpaceOnUse">
<stop stop-color="#0DBDA0"/>
<stop offset="1" stop-color="#0473B3"/>
</linearGradient>
<linearGradient id="paint5_linear_1_721" x1="247.42" y1="271.516" x2="247.618" y2="440.101" gradientUnits="userSpaceOnUse">
<stop stop-color="#00AB8F"/>
<stop offset="1" stop-color="#027BC1"/>
</linearGradient>
<clipPath id="clip0_1_721">
<rect width="1920" height="1080" fill="white"/>
</clipPath>
</defs>
</svg>
